<?xml version="1.0" encoding="utf-8"?>
<!-- Generator: Adobe Illustrator 19.1.0, SVG Export Plug-In . SVG Version: 6.00 Build 0)  -->
<svg version="1.1" id="Layer_1" xmlns="http://www.w3.org/2000/svg" xmlns:xlink="http://www.w3.org/1999/xlink" x="0px" y="0px"
	 viewBox="-291 192.5 375.8 216" style="enable-background:new -291 192.5 375.8 216;" xml:space="preserve">
<g>
	<g>
		<g>
			<path d="M-155,260.4h-10.3v17.8H-183v-17.8h-36.6v-12.6l37.6-55.4h16.7v53.9h10.3V260.4z M-183,246.3v-14.5
				c0-2.4,0.1-5.9,0.3-10.6c0.2-4.6,0.4-7.3,0.5-8h-0.5c-1.4,3.2-3.2,6.3-5.2,9.4l-15.8,23.7H-183z"/>
		</g>
		<g>
			<path d="M-53.7,246.3h10.3v-53.9h16.7l37.6,55.4v12.6h-36.6v17.8h-17.7v-17.8h-10.3L-53.7,246.3L-53.7,246.3z M-5,246.3
				l-15.7-23.8c-2-3.1-3.8-6.2-5.2-9.4h-0.5c0.1,0.7,0.3,3.4,0.5,8c0.2,4.6,0.3,8.1,0.3,10.6v14.6C-25.6,246.3-5,246.3-5,246.3z"/>
		</g>
		<g>
			<path d="M-101.3,192.5c-20.3,0-36.8,16.5-36.8,36.8s16.5,36.8,36.8,36.8s36.8-16.5,36.8-36.8S-81,192.5-101.3,192.5z
				 M-101.3,263.4c-18.8,0-34.1-15.3-34.1-34.1s15.3-34.1,34.1-34.1s34.1,15.3,34.1,34.1C-67.3,248.1-82.5,263.4-101.3,263.4z"/>
			<g>
				<path d="M-90.4,229.3L-90.4,229.3c7.5,0,13.7-6.1,13.7-13.7c0-7.5-6.1-13.7-13.7-13.7c0,0,0,0-0.1,0l0,0h-8.1h-5.4v4.2v36.8l0,0
					c0,4.5-3.7,8.2-8.2,8.2s-8.2-3.7-8.2-8.2h-5.5l0,0c0,7.5,6.1,13.7,13.7,13.7c4.5,0,8.4-2.1,10.9-5.5c2.5,3.3,6.5,5.5,10.9,5.5
					c7.5,0,13.7-6.1,13.7-13.7C-76.7,235.4-82.8,229.3-90.4,229.3z"/>
			</g>
			<path d="M-143.3,277.2L-143.3,277.2c-1.2-1.2-1.2-3.1,0-4.3l15.4-15.4c1.2-1.2,3.1-1.2,4.3,0l0,0c1.2,1.2,1.2,3.1,0,4.3
				l-15.4,15.4C-140.2,278.4-142.1,278.4-143.3,277.2z"/>
		</g>
	</g>
	<g>
		<path d="M-247.3,332.7h-2.7l-10.2-36c-0.9-3-1.5-5.4-1.9-7.3c-0.3,1.8-0.8,4-1.5,6.4c-0.6,2.4-4.1,14.7-10.3,36.9h-2.7l-12.8-46.6
			h3.4l8.2,30c0.3,1.2,0.6,2.3,0.9,3.4c0.3,1,0.5,2,0.7,2.9c0.2,0.9,0.4,1.8,0.6,2.6c0.2,0.8,0.3,1.7,0.5,2.5
			c0.5-2.9,1.6-7.3,3.3-13.2l8-28.3h3.6l9.3,32.5c1.1,3.7,1.9,6.8,2.3,9.1c0.3-1.5,0.6-3.2,1.1-4.9s3.7-13.9,9.8-36.6h3.3
			L-247.3,332.7z"/>
		<path d="M-213,333.3c-5,0-9-1.6-11.8-4.7s-4.2-7.4-4.2-13c0-5.5,1.4-10,4.1-13.3c2.7-3.3,6.4-5,11-5c4.1,0,7.3,1.4,9.7,4.3
			c2.4,2.8,3.5,6.7,3.5,11.6v2.5h-25c0,4.8,1.2,8.4,3.3,10.9c2.2,2.5,5.3,3.8,9.4,3.8c2,0,3.7-0.1,5.2-0.4s3.4-0.9,5.7-1.8v2.9
			c-2,0.9-3.8,1.4-5.4,1.7C-209.1,333.1-211,333.3-213,333.3z M-213.9,300.1c-3.3,0-6,1.1-8,3.3c-2,2.2-3.2,5.4-3.5,9.5h21.4
			c0-4-0.9-7.2-2.6-9.4C-208.4,301.3-210.8,300.1-213.9,300.1z"/>
		<path d="M-153.1,332.7l-0.8-5.5h-0.3c-1.7,2.2-3.5,3.8-5.4,4.7c-1.8,0.9-4,1.4-6.5,1.4c-3.4,0-6-0.9-7.9-2.6
			c-1.9-1.7-2.8-4.2-2.8-7.2c0-3.4,1.4-6,4.2-7.9c2.8-1.9,6.9-2.9,12.2-3l6.6-0.2v-2.3c0-3.3-0.7-5.8-2-7.5
			c-1.3-1.7-3.5-2.5-6.5-2.5c-3.2,0-6.5,0.9-10,2.7l-1.2-2.7c3.8-1.8,7.6-2.7,11.3-2.7c3.8,0,6.6,1,8.5,3s2.8,5.1,2.8,9.2v23h-2.2
			V332.7z M-165.9,330.4c3.7,0,6.6-1.1,8.8-3.2c2.1-2.1,3.2-5.1,3.2-8.8V315l-6.1,0.3c-4.9,0.2-8.3,1-10.4,2.3
			c-2.1,1.3-3.1,3.3-3.1,6c0,2.2,0.7,3.9,2,5.1C-170.2,329.8-168.3,330.4-165.9,330.4z"/>
		<path d="M-125.9,297.3c1.5,0,3,0.1,4.7,0.4l-0.6,3c-1.4-0.4-2.9-0.5-4.5-0.5c-3,0-5.4,1.3-7.3,3.8s-2.8,5.7-2.8,9.5v19.1h-3.2
			v-34.7h2.7l0.3,6.2h0.2c1.4-2.6,2.9-4.3,4.6-5.4C-130.2,297.9-128.2,297.3-125.9,297.3z"/>
		<path d="M-100.2,333.3c-5,0-9-1.6-11.8-4.7s-4.2-7.4-4.2-13c0-5.5,1.4-10,4.1-13.3c2.7-3.3,6.4-5,11-5c4.1,0,7.3,1.4,9.7,4.3
			c2.4,2.8,3.5,6.7,3.5,11.6v2.5h-25c0,4.8,1.2,8.4,3.3,10.9s5.3,3.8,9.4,3.8c2,0,3.7-0.1,5.2-0.4s3.4-0.9,5.7-1.8v2.9
			c-2,0.9-3.8,1.4-5.4,1.7C-96.3,333.1-98.2,333.3-100.2,333.3z M-101.1,300.1c-3.3,0-6,1.1-8,3.3c-2,2.2-3.2,5.4-3.5,9.5h21.4
			c0-4-0.9-7.2-2.6-9.4C-95.6,301.3-98,300.1-101.1,300.1z"/>
		<path d="M-39.9,323.6c0,3.1-1.2,5.5-3.5,7.2c-2.4,1.7-5.7,2.5-10,2.5c-4.6,0-8.3-0.7-11-2.1v-3.4c3.5,1.7,7.2,2.6,11,2.6
			c3.4,0,6-0.6,7.8-1.7c1.8-1.1,2.7-2.7,2.7-4.5c0-1.7-0.7-3.2-2.1-4.4c-1.4-1.2-3.7-2.4-7-3.5c-3.5-1.3-5.9-2.3-7.3-3.2
			c-1.4-0.9-2.5-1.9-3.2-3.1c-0.7-1.1-1.1-2.5-1.1-4.2c0-2.6,1.1-4.6,3.3-6.2c2.2-1.5,5.2-2.3,9.1-2.3c3.7,0,7.3,0.7,10.6,2.1
			l-1.2,2.9c-3.4-1.4-6.6-2.1-9.5-2.1c-2.8,0-5.1,0.5-6.7,1.4c-1.7,0.9-2.5,2.2-2.5,3.9c0,1.8,0.6,3.3,1.9,4.3s3.8,2.3,7.5,3.6
			c3.1,1.1,5.4,2.1,6.8,3c1.4,0.9,2.5,1.9,3.2,3.1C-40.2,320.7-39.9,322.1-39.9,323.6z"/>
		<path d="M-2.3,315.3c0,5.7-1.4,10.1-4.1,13.2c-2.7,3.2-6.5,4.8-11.3,4.8c-3,0-5.7-0.7-8-2.2s-4.1-3.6-5.3-6.3
			c-1.2-2.7-1.8-5.9-1.8-9.5c0-5.7,1.4-10.1,4.1-13.2c2.7-3.2,6.5-4.7,11.3-4.7s8.5,1.6,11.2,4.8C-3.7,305.3-2.3,309.7-2.3,315.3z
			 M-29.7,315.3c0,4.8,1,8.5,3.1,11.1c2.1,2.6,5.1,4,8.9,4s6.8-1.3,8.9-4c2.1-2.7,3.1-6.4,3.1-11.1c0-4.8-1.1-8.5-3.2-11.1
			s-5.1-4-8.9-4s-6.8,1.3-8.8,3.9C-28.6,306.8-29.7,310.5-29.7,315.3z"/>
		<path d="M20.9,297.3c1.5,0,3,0.1,4.7,0.4l-0.6,3c-1.4-0.4-2.9-0.5-4.5-0.5c-3,0-5.4,1.3-7.3,3.8s-2.8,5.7-2.8,9.5v19.1H7.2v-34.7
			h2.7l0.3,6.2h0.2c1.4-2.6,2.9-4.3,4.6-5.4C16.7,297.9,18.6,297.3,20.9,297.3z"/>
		<path d="M46.3,297.3c1.5,0,3,0.1,4.7,0.4l-0.6,3c-1.4-0.4-2.9-0.5-4.5-0.5c-3,0-5.4,1.3-7.3,3.8s-2.8,5.7-2.8,9.5v19.1h-3.2v-34.7
			h2.7l0.3,6.2h0.2c1.4-2.6,2.9-4.3,4.6-5.4C42.1,297.9,44.1,297.3,46.3,297.3z"/>
		<path d="M52.3,298h3.3l7.3,19.4c2.2,6,3.6,10,4.2,12.1h0.2c0.9-2.7,2.3-6.8,4.4-12.3l7.3-19.3h3.3l-15.5,40.3
			c-1.3,3.3-2.3,5.5-3.2,6.6c-0.8,1.1-1.8,2-3,2.6c-1.1,0.6-2.5,0.9-4.1,0.9c-1.2,0-2.6-0.2-4-0.7v-2.7c1.2,0.3,2.6,0.5,4,0.5
			c1.1,0,2-0.3,2.9-0.8s1.6-1.3,2.2-2.4c0.7-1.1,1.4-2.8,2.3-5.1s1.5-3.8,1.7-4.5L52.3,298z"/>
	</g>
	<g>
		<path d="M-281,366.3h-0.6l-2.4-8.2c-0.2-0.7-0.3-1.2-0.4-1.7c-0.1,0.4-0.2,0.9-0.3,1.5c-0.1,0.5-0.9,3.4-2.3,8.4h-0.7l-2.9-10.6
			h0.8l1.8,6.8c0.1,0.3,0.1,0.5,0.2,0.8c0.1,0.2,0.1,0.5,0.2,0.7s0.1,0.4,0.1,0.6c0,0.2,0.1,0.4,0.1,0.6c0.1-0.7,0.4-1.7,0.7-3
			l1.8-6.5h0.9l2.1,7.4c0.2,0.9,0.4,1.5,0.5,2.1c0.1-0.3,0.1-0.7,0.2-1.1c0.1-0.4,0.8-3.2,2.2-8.4h0.8L-281,366.3z"/>
		<path d="M-273.2,366.4c-1.2,0-2-0.4-2.7-1.1c-0.6-0.7-1-1.7-1-3s0.3-2.3,0.9-3c0.6-0.8,1.5-1.1,2.5-1.1c0.9,0,1.7,0.3,2.2,1
			s0.8,1.5,0.8,2.7v0.6h-5.7c0,1.1,0.3,1.9,0.8,2.5c0.5,0.6,1.2,0.9,2.1,0.9c0.5,0,0.8,0,1.2-0.1c0.3-0.1,0.8-0.2,1.3-0.4v0.7
			c-0.4,0.2-0.9,0.3-1.2,0.4C-272.3,366.4-272.7,366.4-273.2,366.4z M-273.4,358.9c-0.8,0-1.4,0.3-1.8,0.8c-0.5,0.5-0.7,1.2-0.8,2.2
			h4.9c0-0.9-0.2-1.6-0.6-2.2C-272.1,359.1-272.7,358.9-273.4,358.9z"/>
		<path d="M-259.4,364.2c0,0.7-0.3,1.3-0.8,1.6c-0.5,0.4-1.3,0.6-2.3,0.6c-1.1,0-1.9-0.2-2.5-0.5v-0.8c0.8,0.4,1.6,0.6,2.5,0.6
			c0.8,0,1.4-0.1,1.8-0.4c0.4-0.3,0.6-0.6,0.6-1s-0.2-0.7-0.5-1c-0.3-0.3-0.9-0.5-1.6-0.8c-0.8-0.3-1.3-0.5-1.7-0.7
			c-0.3-0.2-0.6-0.4-0.7-0.7c-0.2-0.3-0.2-0.6-0.2-0.9c0-0.6,0.2-1.1,0.7-1.4c0.5-0.3,1.2-0.5,2.1-0.5s1.7,0.2,2.4,0.5l-0.3,0.7
			c-0.8-0.3-1.5-0.5-2.2-0.5c-0.6,0-1.2,0.1-1.5,0.3c-0.4,0.2-0.6,0.5-0.6,0.9c0,0.4,0.1,0.7,0.4,1c0.3,0.2,0.9,0.5,1.7,0.8
			c0.7,0.3,1.2,0.5,1.6,0.7c0.4,0.2,0.6,0.4,0.7,0.7C-259.5,363.6-259.4,363.9-259.4,364.2z"/>
		<path d="M-254.2,366.4c-1.2,0-2-0.4-2.7-1.1c-0.6-0.7-1-1.7-1-3s0.3-2.3,0.9-3c0.6-0.8,1.5-1.1,2.5-1.1c0.9,0,1.7,0.3,2.2,1
			s0.8,1.5,0.8,2.7v0.6h-5.7c0,1.1,0.3,1.9,0.8,2.5c0.5,0.6,1.2,0.9,2.1,0.9c0.5,0,0.8,0,1.2-0.1c0.3-0.1,0.8-0.2,1.3-0.4v0.7
			c-0.4,0.2-0.9,0.3-1.2,0.4C-253.3,366.4-253.7,366.4-254.2,366.4z M-254.4,358.9c-0.8,0-1.4,0.3-1.8,0.8c-0.5,0.5-0.7,1.2-0.8,2.2
			h4.9c0-0.9-0.2-1.6-0.6-2.2C-253.1,359.1-253.7,358.9-254.4,358.9z"/>
		<path d="M-246,366.4c-1.2,0-2-0.4-2.7-1.1c-0.6-0.7-1-1.7-1-3s0.3-2.3,0.9-3c0.6-0.8,1.5-1.1,2.5-1.1c0.9,0,1.7,0.3,2.2,1
			s0.8,1.5,0.8,2.7v0.6h-5.7c0,1.1,0.3,1.9,0.8,2.5c0.5,0.6,1.2,0.9,2.1,0.9c0.5,0,0.8,0,1.2-0.1c0.3-0.1,0.8-0.2,1.3-0.4v0.7
			c-0.4,0.2-0.9,0.3-1.2,0.4C-245.1,366.4-245.5,366.4-246,366.4z M-246.2,358.9c-0.8,0-1.4,0.3-1.8,0.8c-0.5,0.5-0.7,1.2-0.8,2.2
			h4.8c0-0.9-0.2-1.6-0.6-2.2C-244.9,359.1-245.5,358.9-246.2,358.9z"/>
		<path d="M-231.1,366.3v-5.2c0-0.8-0.2-1.3-0.5-1.7c-0.3-0.4-0.8-0.5-1.4-0.5c-0.8,0-1.4,0.2-1.8,0.7c-0.4,0.4-0.6,1.1-0.6,2.1v4.6
			h-0.7v-5.4c0-1.3-0.6-2-1.8-2c-0.8,0-1.4,0.2-1.8,0.7c-0.4,0.5-0.6,1.3-0.6,2.3v4.4h-0.7v-7.9h0.6l0.2,1.1l0,0
			c0.2-0.4,0.5-0.7,0.9-0.9c0.4-0.2,0.8-0.3,1.3-0.3c1.2,0,2,0.5,2.4,1.4l0,0c0.3-0.5,0.6-0.8,1-1c0.4-0.2,0.9-0.4,1.5-0.4
			c0.9,0,1.5,0.2,1.9,0.7s0.6,1.2,0.6,2.2v5.2h-0.5V366.3z"/>
		<path d="M-221.9,365.8c0.5,0,0.9,0,1.2-0.1v0.6c-0.3,0.1-0.8,0.2-1.2,0.2c-0.7,0-1.2-0.2-1.5-0.6c-0.3-0.4-0.5-1-0.5-1.8V359h-1.2
			v-0.4l1.2-0.3l0.4-1.8h0.4v1.9h2.3v0.6h-2.3v5c0,0.6,0.1,1.1,0.3,1.3C-222.7,365.6-222.3,365.8-221.9,365.8z"/>
		<path d="M-212.4,362.3c0,1.3-0.3,2.3-0.9,3c-0.6,0.7-1.5,1.1-2.6,1.1c-0.7,0-1.3-0.2-1.8-0.5c-0.5-0.3-0.9-0.8-1.2-1.4
			c-0.3-0.6-0.4-1.3-0.4-2.2c0-1.3,0.3-2.3,0.9-3c0.6-0.7,1.5-1.1,2.6-1.1s1.9,0.4,2.6,1.1C-212.7,360-212.4,361-212.4,362.3z
			 M-218.7,362.3c0,1.1,0.2,1.9,0.7,2.5c0.5,0.6,1.2,0.9,2,0.9c0.9,0,1.5-0.3,2-0.9c0.5-0.6,0.7-1.5,0.7-2.5c0-1.1-0.2-1.9-0.7-2.5
			c-0.5-0.6-1.2-0.9-2-0.9s-1.5,0.3-2,0.9C-218.5,360.4-218.7,361.2-218.7,362.3z"/>
		<path d="M-200.8,366.3v-5.1c0-0.8-0.2-1.4-0.5-1.7c-0.3-0.4-0.9-0.5-1.6-0.5c-0.9,0-1.6,0.2-2.1,0.7c-0.4,0.5-0.7,1.3-0.7,2.3v4.4
			h-0.7v-11.3h0.7v3.6v1h0.1c0.3-0.5,0.7-0.8,1.1-1c0.5-0.2,1-0.3,1.7-0.3c1.8,0,2.7,1,2.7,2.9v5.2h-0.7V366.3z"/>
		<path d="M-192.8,366.3l-0.2-1.3l0,0c-0.4,0.5-0.8,0.9-1.2,1.1c-0.4,0.2-0.9,0.3-1.5,0.3c-0.8,0-1.4-0.2-1.8-0.6
			c-0.4-0.4-0.6-0.9-0.6-1.7s0.3-1.4,1-1.8c0.7-0.4,1.6-0.7,2.8-0.7h1.5v-0.5c0-0.8-0.2-1.3-0.5-1.7c-0.3-0.4-0.8-0.6-1.5-0.6
			c-0.7,0-1.5,0.2-2.3,0.6l-0.3-0.6c0.9-0.4,1.7-0.6,2.6-0.6s1.5,0.2,1.9,0.7c0.4,0.5,0.6,1.2,0.6,2.1v5.3H-192.8z M-195.7,365.8
			c0.8,0,1.5-0.2,2-0.7s0.7-1.2,0.7-2v-0.8l-1.4,0.1c-1.1,0.1-1.9,0.2-2.4,0.5c-0.5,0.3-0.7,0.8-0.7,1.4c0,0.5,0.2,0.9,0.5,1.2
			S-196.2,365.8-195.7,365.8z"/>
		<path d="M-187.9,366.3l-3.1-7.9h0.7l2,5.4c0.3,0.7,0.5,1.3,0.6,1.8l0,0c0.2-0.7,0.4-1.3,0.6-1.8l2-5.4h0.7l-3.1,7.9H-187.9z"/>
		<path d="M-179.6,366.4c-1.2,0-2-0.4-2.7-1.1c-0.6-0.7-1-1.7-1-3s0.3-2.3,0.9-3c0.6-0.8,1.5-1.1,2.5-1.1c0.9,0,1.7,0.3,2.2,1
			s0.8,1.5,0.8,2.7v0.6h-5.7c0,1.1,0.3,1.9,0.8,2.5c0.5,0.6,1.2,0.9,2.1,0.9c0.5,0,0.8,0,1.2-0.1c0.3-0.1,0.8-0.2,1.3-0.4v0.7
			c-0.4,0.2-0.9,0.3-1.2,0.4C-178.8,366.4-179.2,366.4-179.6,366.4z M-179.8,358.9c-0.8,0-1.4,0.3-1.8,0.8c-0.5,0.5-0.7,1.2-0.8,2.2
			h4.9c0-0.9-0.2-1.6-0.6-2.2C-178.6,359.1-179.1,358.9-179.8,358.9z"/>
		<path d="M-170,366.3h-0.7V355h0.7V366.3z"/>
		<path d="M-160.8,362.3c0,1.3-0.3,2.3-0.9,3c-0.6,0.7-1.5,1.1-2.6,1.1c-0.7,0-1.3-0.2-1.8-0.5c-0.5-0.3-0.9-0.8-1.2-1.4
			c-0.3-0.6-0.4-1.3-0.4-2.2c0-1.3,0.3-2.3,0.9-3c0.6-0.7,1.5-1.1,2.6-1.1s1.9,0.4,2.6,1.1C-161.2,360-160.8,361-160.8,362.3z
			 M-167.1,362.3c0,1.1,0.2,1.9,0.7,2.5c0.5,0.6,1.2,0.9,2,0.9c0.9,0,1.5-0.3,2-0.9c0.5-0.6,0.7-1.5,0.7-2.5c0-1.1-0.2-1.9-0.7-2.5
			c-0.5-0.6-1.2-0.9-2-0.9s-1.5,0.3-2,0.9C-166.9,360.4-167.1,361.2-167.1,362.3z"/>
		<path d="M-153.7,364.2c0,0.7-0.3,1.3-0.8,1.6c-0.5,0.4-1.3,0.6-2.3,0.6c-1.1,0-1.9-0.2-2.5-0.5v-0.8c0.8,0.4,1.6,0.6,2.5,0.6
			c0.8,0,1.4-0.1,1.8-0.4c0.4-0.3,0.6-0.6,0.6-1s-0.2-0.7-0.5-1s-0.9-0.5-1.6-0.8c-0.8-0.3-1.3-0.5-1.7-0.7
			c-0.3-0.2-0.6-0.4-0.7-0.7c-0.2-0.3-0.2-0.6-0.2-0.9c0-0.6,0.2-1.1,0.7-1.4c0.5-0.3,1.2-0.5,2.1-0.5c0.9,0,1.7,0.2,2.4,0.5
			l-0.3,0.7c-0.8-0.3-1.5-0.5-2.2-0.5c-0.6,0-1.2,0.1-1.5,0.3c-0.4,0.2-0.6,0.5-0.6,0.9c0,0.4,0.1,0.7,0.4,1
			c0.3,0.2,0.9,0.5,1.7,0.8c0.7,0.3,1.2,0.5,1.6,0.7c0.4,0.2,0.6,0.4,0.7,0.7C-153.8,363.6-153.7,363.9-153.7,364.2z"/>
		<path d="M-149.6,365.8c0.5,0,0.9,0,1.2-0.1v0.6c-0.3,0.1-0.8,0.2-1.2,0.2c-0.7,0-1.2-0.2-1.5-0.6s-0.5-1-0.5-1.8V359h-1.2v-0.4
			l1.2-0.3l0.4-1.8h0.4v1.9h2.3v0.6h-2.3v5c0,0.6,0.1,1.1,0.3,1.3C-150.4,365.6-150.1,365.8-149.6,365.8z"/>
		<path d="M-140.8,365.8c0.5,0,0.9,0,1.2-0.1v0.6c-0.3,0.1-0.8,0.2-1.2,0.2c-0.7,0-1.2-0.2-1.5-0.6s-0.5-1-0.5-1.8V359h-1.2v-0.4
			l1.2-0.3l0.4-1.8h0.4v1.9h2.3v0.6h-2.3v5c0,0.6,0.1,1.1,0.3,1.3C-141.5,365.6-141.2,365.8-140.8,365.8z"/>
		<path d="M-132.3,366.3v-5.1c0-0.8-0.2-1.4-0.5-1.7c-0.3-0.4-0.9-0.5-1.6-0.5c-0.9,0-1.6,0.2-2.1,0.7c-0.4,0.5-0.7,1.3-0.7,2.3v4.4
			h-0.7v-11.3h0.7v3.6v1h0.1c0.3-0.5,0.7-0.8,1.1-1c0.5-0.2,1-0.3,1.7-0.3c1.8,0,2.7,1,2.7,2.9v5.2h-0.7V366.3z"/>
		<path d="M-129.2,356.2c0-0.5,0.2-0.7,0.5-0.7c0.2,0,0.3,0.1,0.4,0.2c0.1,0.1,0.1,0.3,0.1,0.5c0,0.2,0,0.4-0.1,0.5
			c-0.1,0.1-0.2,0.2-0.4,0.2C-129,356.9-129.2,356.6-129.2,356.2z M-128.3,366.3h-0.7v-7.9h0.7V366.3z"/>
		<path d="M-120.8,364.2c0,0.7-0.3,1.3-0.8,1.6c-0.5,0.4-1.3,0.6-2.3,0.6c-1.1,0-1.9-0.2-2.5-0.5v-0.8c0.8,0.4,1.6,0.6,2.5,0.6
			c0.8,0,1.4-0.1,1.8-0.4c0.4-0.3,0.6-0.6,0.6-1s-0.2-0.7-0.5-1s-0.9-0.5-1.6-0.8c-0.8-0.3-1.3-0.5-1.7-0.7
			c-0.3-0.2-0.6-0.4-0.7-0.7c-0.2-0.3-0.2-0.6-0.2-0.9c0-0.6,0.2-1.1,0.7-1.4c0.5-0.3,1.2-0.5,2.1-0.5c0.9,0,1.7,0.2,2.4,0.5
			l-0.3,0.7c-0.8-0.3-1.5-0.5-2.2-0.5c-0.6,0-1.2,0.1-1.5,0.3c-0.4,0.2-0.6,0.5-0.6,0.9c0,0.4,0.1,0.7,0.4,1
			c0.3,0.2,0.9,0.5,1.7,0.8c0.7,0.3,1.2,0.5,1.6,0.7c0.4,0.2,0.6,0.4,0.7,0.7C-120.9,363.6-120.8,363.9-120.8,364.2z"/>
		<path d="M-111.5,366.4c-1.2,0-2.1-0.5-2.7-1.4h-0.1v0.6c0,0.4,0,0.8,0,1.2v3h-0.7v-11.5h0.6l0.1,1.1l0,0c0.5-0.9,1.4-1.3,2.6-1.3
			c1.1,0,1.9,0.4,2.4,1.1c0.6,0.7,0.8,1.7,0.8,3.1c0,1.3-0.3,2.3-0.9,3C-109.7,366.1-110.5,366.4-111.5,366.4z M-111.5,365.8
			c0.8,0,1.4-0.3,1.9-0.9c0.4-0.6,0.7-1.4,0.7-2.5c0-2.3-0.8-3.5-2.5-3.5c-0.9,0-1.6,0.3-2,0.8s-0.6,1.3-0.6,2.5v0.2
			c0,1.2,0.2,2.1,0.6,2.6C-113.1,365.5-112.4,365.8-111.5,365.8z"/>
		<path d="M-101.2,366.3l-0.2-1.3h-0.1c-0.4,0.5-0.8,0.9-1.2,1.1s-0.9,0.3-1.5,0.3c-0.8,0-1.4-0.2-1.8-0.6c-0.4-0.4-0.6-0.9-0.6-1.7
			s0.3-1.4,1-1.8c0.6-0.4,1.6-0.7,2.8-0.7h1.5v-0.5c0-0.8-0.2-1.3-0.5-1.7c-0.3-0.4-0.8-0.6-1.5-0.6s-1.5,0.2-2.3,0.6l-0.3-0.6
			c0.9-0.4,1.7-0.6,2.6-0.6c0.9,0,1.5,0.2,1.9,0.7s0.6,1.2,0.6,2.1v5.3H-101.2z M-104.1,365.8c0.8,0,1.5-0.2,2-0.7s0.7-1.2,0.7-2
			v-0.8l-1.4,0.1c-1.1,0.1-1.9,0.2-2.4,0.5c-0.5,0.3-0.7,0.8-0.7,1.4c0,0.5,0.2,0.9,0.5,1.2C-105.1,365.6-104.6,365.8-104.1,365.8z"
			/>
		<path d="M-91.9,358.4v0.5l-1.6,0.1c0.4,0.5,0.7,1.1,0.7,1.8c0,0.8-0.3,1.4-0.8,1.9s-1.2,0.7-2,0.7c-0.4,0-0.6,0-0.8,0
			c-0.3,0.2-0.5,0.3-0.7,0.5s-0.2,0.4-0.2,0.6c0,0.3,0.1,0.4,0.3,0.6c0.2,0.1,0.5,0.2,1,0.2h1.4c0.9,0,1.5,0.2,2,0.5
			c0.5,0.3,0.7,0.9,0.7,1.5c0,0.8-0.3,1.5-1,1.9c-0.7,0.4-1.6,0.7-2.9,0.7c-1,0-1.8-0.2-2.3-0.6s-0.8-0.9-0.8-1.6
			c0-0.5,0.2-1,0.5-1.4s0.8-0.6,1.4-0.7c-0.2-0.1-0.4-0.2-0.6-0.4c-0.1-0.2-0.2-0.4-0.2-0.6c0-0.5,0.3-1,1-1.4
			c-0.5-0.2-0.8-0.5-1.1-0.9c-0.3-0.4-0.4-0.9-0.4-1.4c0-0.8,0.3-1.4,0.8-1.9s1.2-0.7,2-0.7c0.5,0,0.9,0.1,1.2,0.2h2.4V358.4z
			 M-98.3,367.6c0,1.1,0.8,1.6,2.4,1.6c2.1,0,3.1-0.7,3.1-2c0-0.5-0.2-0.8-0.5-1s-0.9-0.3-1.6-0.3h-1.3
			C-97.6,365.9-98.3,366.5-98.3,367.6z M-97.7,360.8c0,0.6,0.2,1.1,0.6,1.4c0.4,0.3,0.9,0.5,1.5,0.5c0.7,0,1.2-0.2,1.5-0.5
			c0.4-0.3,0.5-0.8,0.5-1.5c0-0.7-0.2-1.2-0.5-1.5c-0.4-0.3-0.9-0.5-1.5-0.5s-1.1,0.2-1.5,0.5C-97.5,359.7-97.7,360.2-97.7,360.8z"
			/>
		<path d="M-87.1,366.4c-1.2,0-2-0.4-2.7-1.1c-0.6-0.7-1-1.7-1-3s0.3-2.3,0.9-3c0.6-0.8,1.5-1.1,2.5-1.1c0.9,0,1.7,0.3,2.2,1
			s0.8,1.5,0.8,2.7v0.6H-90c0,1.1,0.3,1.9,0.8,2.5c0.5,0.6,1.2,0.9,2.1,0.9c0.5,0,0.8,0,1.2-0.1c0.3-0.1,0.8-0.2,1.3-0.4v0.7
			c-0.4,0.2-0.9,0.3-1.2,0.4C-86.2,366.4-86.6,366.4-87.1,366.4z M-87.3,358.9c-0.8,0-1.4,0.3-1.8,0.8s-0.7,1.2-0.8,2.2h4.9
			c0-0.9-0.2-1.6-0.6-2.2C-86,359.1-86.6,358.9-87.3,358.9z"/>
		<path d="M-81.3,364.6l0.1,0.2c-0.4,1.3-0.8,2.5-1.3,3.5H-83c0.4-1.3,0.6-2.6,0.8-3.7H-81.3z"/>
		<path d="M-72.9,365.8c0.5,0,0.9,0,1.2-0.1v0.6c-0.3,0.1-0.8,0.2-1.2,0.2c-0.7,0-1.2-0.2-1.5-0.6s-0.5-1-0.5-1.8V359h-1.2v-0.4
			l1.2-0.3l0.4-1.8h0.4v1.9h2.3v0.6h-2.3v5c0,0.6,0.1,1.1,0.3,1.3C-73.7,365.6-73.4,365.8-72.9,365.8z"/>
		<path d="M-66.9,358.2c0.3,0,0.7,0,1.1,0.1l-0.1,0.7c-0.3-0.1-0.7-0.1-1-0.1c-0.7,0-1.2,0.3-1.7,0.9c-0.4,0.6-0.6,1.3-0.6,2.2v4.4
			H-70v-7.9h0.6l0.1,1.4h0.1c0.3-0.6,0.7-1,1-1.2S-67.4,358.2-66.9,358.2z"/>
		<path d="M-65.6,358.4h0.7l1.7,4.4c0.5,1.4,0.8,2.3,1,2.8l0,0c0.2-0.6,0.5-1.6,1-2.8l1.7-4.4h0.7l-3.5,9.2
			c-0.3,0.7-0.5,1.3-0.7,1.5c-0.2,0.2-0.4,0.5-0.7,0.6c-0.3,0.1-0.6,0.2-0.9,0.2c-0.3,0-0.6-0.1-0.9-0.2v-0.6
			c0.3,0.1,0.6,0.1,0.9,0.1c0.2,0,0.5-0.1,0.7-0.2c0.2-0.1,0.4-0.3,0.5-0.5c0.2-0.2,0.3-0.6,0.5-1.2c0.2-0.5,0.3-0.9,0.4-1
			L-65.6,358.4z"/>
		<path d="M-47,362.3c0,1.3-0.3,2.3-0.9,3c-0.6,0.7-1.5,1.1-2.6,1.1c-0.7,0-1.3-0.2-1.8-0.5c-0.5-0.3-0.9-0.8-1.2-1.4
			c-0.3-0.6-0.4-1.3-0.4-2.2c0-1.3,0.3-2.3,0.9-3s1.5-1.1,2.6-1.1s1.9,0.4,2.6,1.1S-47,361-47,362.3z M-53.2,362.3
			c0,1.1,0.2,1.9,0.7,2.5c0.5,0.6,1.2,0.9,2,0.9c0.9,0,1.5-0.3,2-0.9c0.5-0.6,0.7-1.5,0.7-2.5c0-1.1-0.2-1.9-0.7-2.5
			c-0.5-0.6-1.2-0.9-2-0.9c-0.9,0-1.5,0.3-2,0.9C-53,360.4-53.2,361.2-53.2,362.3z"/>
		<path d="M-39.3,366.3v-5.1c0-0.8-0.2-1.4-0.5-1.7c-0.3-0.4-0.9-0.5-1.6-0.5c-0.9,0-1.6,0.2-2.1,0.7c-0.4,0.5-0.7,1.3-0.7,2.3v4.4
			h-0.7v-7.9h0.6l0.1,1.1l0,0c0.5-0.8,1.4-1.2,2.7-1.2c1.8,0,2.7,1,2.7,2.9v5.2h-0.5V366.3z"/>
		<path d="M-32.8,366.4c-1.2,0-2-0.4-2.7-1.1c-0.6-0.7-1-1.7-1-3s0.3-2.3,0.9-3c0.6-0.8,1.5-1.1,2.5-1.1c0.9,0,1.7,0.3,2.2,1
			s0.8,1.5,0.8,2.7v0.6h-5.7c0,1.1,0.3,1.9,0.8,2.5c0.5,0.6,1.2,0.9,2.1,0.9c0.5,0,0.8,0,1.2-0.1c0.3-0.1,0.8-0.2,1.3-0.4v0.7
			c-0.4,0.2-0.9,0.3-1.2,0.4C-31.9,366.4-32.3,366.4-32.8,366.4z M-33,358.9c-0.8,0-1.4,0.3-1.8,0.8c-0.5,0.5-0.7,1.2-0.8,2.2h4.9
			c0-0.9-0.2-1.6-0.6-2.2C-31.7,359.1-32.3,358.9-33,358.9z"/>
		<path d="M-17.4,362.3c0,1.3-0.3,2.3-0.9,3c-0.6,0.7-1.5,1.1-2.6,1.1c-0.7,0-1.3-0.2-1.8-0.5c-0.5-0.3-0.9-0.8-1.2-1.4
			c-0.3-0.6-0.4-1.3-0.4-2.2c0-1.3,0.3-2.3,0.9-3s1.5-1.1,2.6-1.1s1.9,0.4,2.6,1.1S-17.4,361-17.4,362.3z M-23.6,362.3
			c0,1.1,0.2,1.9,0.7,2.5c0.5,0.6,1.2,0.9,2,0.9c0.9,0,1.5-0.3,2-0.9c0.5-0.6,0.7-1.5,0.7-2.5c0-1.1-0.2-1.9-0.7-2.5
			c-0.5-0.6-1.2-0.9-2-0.9c-0.9,0-1.5,0.3-2,0.9C-23.4,360.4-23.6,361.2-23.6,362.3z"/>
		<path d="M-12.2,359h-1.9v7.3h-0.7V359h-1.5v-0.4l1.5-0.3v-0.6c0-1,0.2-1.7,0.5-2.1c0.4-0.5,0.9-0.7,1.8-0.7c0.4,0,0.9,0.1,1.3,0.2
			l-0.2,0.6c-0.4-0.1-0.8-0.2-1.2-0.2c-0.6,0-1,0.2-1.2,0.5s-0.4,0.9-0.4,1.6v0.7h1.9v0.7H-12.2z"/>
		<path d="M-4.8,365.8c0.5,0,0.9,0,1.2-0.1v0.6c-0.3,0.1-0.8,0.2-1.2,0.2c-0.7,0-1.2-0.2-1.5-0.6s-0.5-1-0.5-1.8V359H-8v-0.4
			l1.2-0.3l0.4-1.8H-6v1.9h2.3v0.6H-6v5c0,0.6,0.1,1.1,0.3,1.3C-5.5,365.6-5.2,365.8-4.8,365.8z"/>
		<path d="M3.7,366.3v-5.1c0-0.8-0.2-1.4-0.5-1.7c-0.3-0.4-0.9-0.5-1.6-0.5c-0.9,0-1.6,0.2-2.1,0.7c-0.4,0.5-0.7,1.3-0.7,2.3v4.4
			h-0.7v-11.3h0.7v3.6v1h0.1c0.3-0.5,0.7-0.8,1.1-1c0.5-0.2,1-0.3,1.7-0.3c1.8,0,2.7,1,2.7,2.9v5.2H3.7V366.3z"/>
		<path d="M10.1,366.4c-1.2,0-2-0.4-2.7-1.1c-0.6-0.7-1-1.7-1-3s0.3-2.3,0.9-3c0.6-0.8,1.5-1.1,2.5-1.1c0.9,0,1.7,0.3,2.2,1
			s0.8,1.5,0.8,2.7v0.6H7.1c0,1.1,0.3,1.9,0.8,2.5c0.5,0.6,1.2,0.9,2.1,0.9c0.5,0,0.8,0,1.2-0.1c0.3-0.1,0.8-0.2,1.3-0.4v0.7
			c-0.4,0.2-0.9,0.3-1.2,0.4C11,366.4,10.6,366.4,10.1,366.4z M9.9,358.9c-0.8,0-1.4,0.3-1.8,0.8s-0.7,1.2-0.8,2.2h4.9
			c0-0.9-0.2-1.6-0.6-2.2C11.2,359.1,10.6,358.9,9.9,358.9z"/>
		<path d="M20,364.2c0,0.7-0.3,1.3-0.8,1.6c-0.5,0.4-1.3,0.6-2.3,0.6c-1.1,0-1.9-0.2-2.5-0.5v-0.8c0.8,0.4,1.6,0.6,2.5,0.6
			c0.8,0,1.4-0.1,1.8-0.4s0.6-0.6,0.6-1s-0.2-0.7-0.5-1s-0.9-0.5-1.6-0.8c-0.8-0.3-1.3-0.5-1.7-0.7c-0.3-0.2-0.6-0.4-0.7-0.7
			c-0.2-0.3-0.2-0.6-0.2-0.9c0-0.6,0.2-1.1,0.7-1.4c0.5-0.3,1.2-0.5,2.1-0.5s1.7,0.2,2.4,0.5l-0.3,0.7c-0.8-0.3-1.5-0.5-2.2-0.5
			c-0.6,0-1.2,0.1-1.5,0.3c-0.4,0.2-0.6,0.5-0.6,0.9c0,0.4,0.1,0.7,0.4,1c0.3,0.2,0.9,0.5,1.7,0.8c0.7,0.3,1.2,0.5,1.6,0.7
			c0.4,0.2,0.6,0.4,0.7,0.7C20,363.6,20,363.9,20,364.2z"/>
		<path d="M25.3,366.4c-1.2,0-2-0.4-2.7-1.1c-0.6-0.7-1-1.7-1-3s0.3-2.3,0.9-3c0.6-0.8,1.5-1.1,2.5-1.1c0.9,0,1.7,0.3,2.2,1
			s0.8,1.5,0.8,2.7v0.6h-5.7c0,1.1,0.3,1.9,0.8,2.5c0.5,0.6,1.2,0.9,2.1,0.9c0.5,0,0.8,0,1.2-0.1c0.3-0.1,0.8-0.2,1.3-0.4v0.7
			c-0.4,0.2-0.9,0.3-1.2,0.4C26.1,366.4,25.7,366.4,25.3,366.4z M25.1,358.9c-0.8,0-1.4,0.3-1.8,0.8s-0.7,1.2-0.8,2.2h4.9
			c0-0.9-0.2-1.6-0.6-2.2C26.3,359.1,25.8,358.9,25.1,358.9z"/>
		<path d="M34,356.2c0-0.5,0.2-0.7,0.5-0.7c0.2,0,0.3,0.1,0.4,0.2c0.1,0.1,0.1,0.3,0.1,0.5c0,0.2,0,0.4-0.1,0.5
			c-0.1,0.1-0.2,0.2-0.4,0.2C34.2,356.9,34,356.6,34,356.2z M34.9,366.3h-0.7v-7.9h0.7V366.3z"/>
		<path d="M43,366.3v-5.1c0-0.8-0.2-1.4-0.5-1.7c-0.3-0.4-0.9-0.5-1.6-0.5c-0.9,0-1.6,0.2-2.1,0.7c-0.4,0.5-0.7,1.3-0.7,2.3v4.4
			h-0.7v-7.9H38l0.1,1.1l0,0c0.5-0.8,1.4-1.2,2.7-1.2c1.8,0,2.7,1,2.7,2.9v5.2H43V366.3z"/>
		<path d="M51.2,364.2c0,0.7-0.3,1.3-0.8,1.6c-0.5,0.4-1.3,0.6-2.3,0.6c-1.1,0-1.9-0.2-2.5-0.5v-0.8c0.8,0.4,1.6,0.6,2.5,0.6
			c0.8,0,1.4-0.1,1.8-0.4s0.6-0.6,0.6-1s-0.2-0.7-0.5-1s-0.9-0.5-1.6-0.8c-0.8-0.3-1.3-0.5-1.7-0.7c-0.3-0.2-0.6-0.4-0.7-0.7
			c-0.2-0.3-0.2-0.6-0.2-0.9c0-0.6,0.2-1.1,0.7-1.4c0.5-0.3,1.2-0.5,2.1-0.5s1.7,0.2,2.4,0.5l-0.3,0.7c-0.8-0.3-1.5-0.5-2.2-0.5
			c-0.6,0-1.2,0.1-1.5,0.3c-0.4,0.2-0.6,0.5-0.6,0.9c0,0.4,0.1,0.7,0.4,1c0.3,0.2,0.9,0.5,1.7,0.8c0.7,0.3,1.2,0.5,1.6,0.7
			c0.4,0.2,0.6,0.4,0.7,0.7C51.1,363.6,51.2,363.9,51.2,364.2z"/>
		<path d="M55.3,365.8c0.5,0,0.9,0,1.2-0.1v0.6c-0.3,0.1-0.8,0.2-1.2,0.2c-0.7,0-1.2-0.2-1.5-0.6s-0.5-1-0.5-1.8V359h-1.2v-0.4
			l1.2-0.3l0.4-1.8h0.4v1.9h2.3v0.6H54v5c0,0.6,0.1,1.1,0.3,1.3C54.5,365.6,54.9,365.8,55.3,365.8z"/>
		<path d="M61.4,366.4c-1.2,0-2-0.4-2.7-1.1c-0.6-0.7-1-1.7-1-3s0.3-2.3,0.9-3c0.6-0.8,1.5-1.1,2.5-1.1c0.9,0,1.7,0.3,2.2,1
			s0.8,1.5,0.8,2.7v0.6h-5.7c0,1.1,0.3,1.9,0.8,2.5c0.5,0.6,1.2,0.9,2.1,0.9c0.5,0,0.8,0,1.2-0.1c0.3-0.1,0.8-0.2,1.3-0.4v0.7
			c-0.4,0.2-0.9,0.3-1.2,0.4C62.3,366.4,61.9,366.4,61.4,366.4z M61.2,358.9c-0.8,0-1.4,0.3-1.8,0.8s-0.7,1.2-0.8,2.2h4.9
			c0-0.9-0.2-1.6-0.6-2.2C62.5,359.1,61.9,358.9,61.2,358.9z"/>
		<path d="M71.2,366.3L71,365l0,0c-0.4,0.5-0.8,0.9-1.2,1.1s-0.9,0.3-1.5,0.3c-0.8,0-1.4-0.2-1.8-0.6c-0.4-0.4-0.6-0.9-0.6-1.7
			s0.3-1.4,1-1.8c0.6-0.4,1.6-0.7,2.8-0.7h1.5v-0.5c0-0.8-0.2-1.3-0.5-1.7c-0.3-0.4-0.8-0.6-1.5-0.6s-1.5,0.2-2.3,0.6l-0.3-0.6
			c0.9-0.4,1.7-0.6,2.6-0.6s1.5,0.2,1.9,0.7s0.6,1.2,0.6,2.1v5.3H71.2z M68.3,365.8c0.8,0,1.5-0.2,2-0.7s0.7-1.2,0.7-2v-0.8
			l-1.4,0.1c-1.1,0.1-1.9,0.2-2.4,0.5c-0.5,0.3-0.7,0.8-0.7,1.4c0,0.5,0.2,0.9,0.5,1.2C67.3,365.6,67.8,365.8,68.3,365.8z"/>
		<path d="M77.2,358.2c0.6,0,1.1,0.1,1.5,0.3s0.8,0.6,1.1,1.1l0,0c0-0.6,0-1.2,0-1.8V355h0.7v11.3H80l-0.2-1.2h-0.1
			c-0.6,0.9-1.5,1.4-2.6,1.4s-1.9-0.3-2.5-1s-0.9-1.7-0.9-3c0-1.4,0.3-2.4,0.9-3.1C75.3,358.6,76.1,358.2,77.2,358.2z M77.2,358.9
			c-0.9,0-1.5,0.3-1.9,0.9c-0.4,0.6-0.7,1.5-0.7,2.6c0,2.2,0.9,3.4,2.6,3.4c0.9,0,1.5-0.3,2-0.8c0.4-0.5,0.6-1.4,0.6-2.6v-0.1
			c0-1.2-0.2-2.1-0.6-2.6S78.1,358.9,77.2,358.9z"/>
		<path d="M83.1,365.7c0-0.5,0.2-0.7,0.6-0.7s0.6,0.2,0.6,0.7s-0.2,0.7-0.6,0.7C83.2,366.4,83.1,366.2,83.1,365.7z"/>
	</g>
</g>
<g>
	<path d="M-280.5,393.5c1.9-0.6,3.6-0.9,5.1-0.9c2,0,3.8,0.5,5.4,1.6c1.5,1,2.3,2.6,2.3,4.8c0,1.6-0.4,2.9-1.3,3.8
		c-0.9,0.9-2,1.4-3.3,1.4c-2.3,0-4.2-1.1-5.6-3.3l1.1-0.8c1.2,1.9,2.7,2.8,4.7,2.8c1,0,1.7-0.3,2.3-1c0.6-0.6,0.8-1.6,0.8-2.9
		c0-1-0.2-1.8-0.5-2.4c-0.4-0.6-1.1-1.2-2.1-1.7c-1-0.5-2.3-0.8-3.8-0.8c-1.5,0-3.2,0.3-4.9,1v6.7c0,0.8-0.3,1.5-0.9,2.1
		c-0.6,0.6-1.4,0.9-2.3,0.9c-1.1,0-2-0.4-2.7-1.1c-0.7-0.7-1.1-1.6-1.1-2.7c0-1.3,0.5-2.5,1.5-3.8c1-1.2,2.4-2.2,4.1-3v-4.7
		c-1.9,0.2-3.4,0.3-4.6,0.3l-0.2-1.4c2.1-0.1,3.7-0.3,4.8-0.4v-5.3h1.4v5.1c1.7-0.3,3.5-0.7,5.4-1.1l0.1,1.4
		c-1.5,0.4-3.3,0.8-5.5,1.1V393.5z M-281.9,401.4v-5.7c-2.8,1.6-4.1,3.2-4.1,5c0,0.7,0.2,1.3,0.6,1.8c0.4,0.5,0.9,0.7,1.6,0.7
		c0.6,0,1.1-0.2,1.4-0.5C-282.1,402.4-281.9,401.9-281.9,401.4z M-266.9,390.2l-1,1c-1.6-1.8-3.2-3.3-5-4.5l1-1.1
		C-269.9,387.2-268.2,388.7-266.9,390.2z"/>
	<path d="M-254.3,393.9c-0.6,0.3-1.5,0.7-2.7,1.3v8.7c0,1.4-0.9,2.1-2.6,2.1c-0.4,0-0.8,0-1.3,0l-0.4-1.4c0.5,0,1,0.1,1.6,0.1
		c0.5,0,0.9-0.1,1.1-0.2c0.2-0.2,0.3-0.4,0.3-0.7v-7.7c-1,0.5-2,0.9-3,1.2l-0.5-1.3c1.7-0.7,2.8-1.1,3.5-1.5v-6h-3.5v-1.3h3.5v-5
		h1.4v5h2.4v1.3h-2.4v5.4c0.5-0.2,1.4-0.6,2.5-1.2L-254.3,393.9z M-238.1,403.4l-0.9,1.1c-2.7-2-4.9-4.6-6.8-7.7v9h-1.4v-9
		c-1.3,2.7-3.7,5.3-7.3,7.7l-0.9-1.1c3.4-2.2,5.8-4.6,7-7.2h-5.3v-1.3h6.6v-2.9h1.4v2.9h7.4v1.3h-6.2
		C-243.2,398.7-241.1,401.2-238.1,403.4z M-247.3,385.5c0.2,3.6-1.6,6.2-5.3,7.6l-0.9-1.2c1.5-0.5,2.7-1.2,3.5-2.2
		c0.9-0.9,1.3-2.4,1.3-4.3H-247.3z M-239.2,388.3h-1.4V384h-11.2v4.3h-1.4v-5.7h14.1V388.3z M-238.9,391.6h-4.4
		c-0.5,0-1-0.2-1.3-0.6c-0.3-0.4-0.5-0.8-0.5-1.3v-4.2h1.4v4c0,0.5,0.3,0.7,0.8,0.7h4.1V391.6z"/>
	<path d="M-213.9,398.6c-3.5,3.7-6.9,5.6-10.4,5.6c-1.8,0-3.2-0.5-4.1-1.5c-0.9-1-1.3-2.1-1.3-3.3v-16.1h1.5v16c0,1.1,0.4,2,1.1,2.6
		c0.7,0.6,1.7,0.9,3,0.9c3.1,0,6.2-1.8,9.4-5.3L-213.9,398.6z"/>
	<path d="M-195.1,387.2c-0.5,3.1-1.2,6.2-2.1,9.4c-1,3.1-1.8,5-2.5,5.5c-0.7,0.5-1.4,0.8-2.1,0.8c-1.3,0-2.4-0.7-3.2-2.1
		c-0.9-1.4-1.3-3-1.3-4.9c0-3,1.2-5.5,3.5-7.6c2.3-2.1,5.1-3.1,8.3-3.1c2.9,0,5.2,0.9,6.8,2.6c1.6,1.7,2.5,4,2.5,6.8
		c0,2.1-0.7,4-2.1,5.7c-1.4,1.7-3.4,3.1-6.2,4.1l-0.9-1.2c2.2-0.6,4.1-1.7,5.6-3.2c1.5-1.5,2.2-3.3,2.2-5.4c0-2.4-0.7-4.3-2-5.7
		c-1.3-1.4-3.2-2.2-5.5-2.2c-0.6,0-1.2,0-1.8,0.1L-195.1,387.2z M-196.5,386.7c-2.4,0.4-4.5,1.4-6,3.1c-1.6,1.7-2.4,3.7-2.4,6.2
		c0,1.4,0.3,2.7,0.9,3.7c0.6,1.1,1.3,1.6,2.1,1.6c0.5,0,1-0.2,1.4-0.7c0.4-0.5,1-2,1.9-4.7C-197.7,393.3-197,390.3-196.5,386.7z"/>
	<path d="M-164.5,396.1c0,5.8-2.6,8.6-7.8,8.6c-4.9,0-7.4-2.8-7.4-8.3v-12.6h2.3v12.5c0,4.3,1.8,6.4,5.4,6.4c3.5,0,5.2-2.1,5.2-6.2
		v-12.7h2.3V396.1z"/>
	<path d="M-144.7,404.4h-2.7l-3.5-5.8c-0.7-1.2-1.4-2.1-2-2.4s-1.3-0.6-2.1-0.6h-2v8.8h-2.3v-20.6h6.1c1.9,0,3.4,0.5,4.5,1.5
		c1.1,1,1.7,2.3,1.7,4c0,2.8-1.5,4.7-4.6,5.5v0.1c0.6,0.2,1,0.6,1.4,1c0.4,0.4,0.9,1.2,1.7,2.4L-144.7,404.4z M-157,385.9v7.6h3.4
		c1.2,0,2.3-0.4,3.1-1.1c0.8-0.7,1.2-1.7,1.2-2.9c0-1.1-0.4-2-1.1-2.6s-1.8-0.9-3.1-0.9H-157z"/>
	<path d="M-131.2,404.4h-10.6v-20.6h2.3v18.5h8.3V404.4z"/>
	<path d="M-120.8,389.5c0.7-0.1,1.4-0.1,2-0.1c1.2,0,2,0.1,2.5,0.4c0.5,0.2,0.8,0.6,1,1c0.2,0.4,0.3,1.2,0.3,2.3
		c0,2.6-0.2,4.8-0.6,6.7c-0.4,1.9-0.8,3-1.3,3.4c-0.5,0.4-1.1,0.6-1.7,0.6c-1.1,0-2.5-0.8-4.3-2.4l0.7-1.4c0.6,0.7,1.3,1.2,1.9,1.7
		c0.7,0.4,1.2,0.6,1.6,0.6c0.4,0,0.7-0.2,0.9-0.5c0.2-0.3,0.5-1.2,0.9-2.6c0.3-1.4,0.5-3.3,0.5-5.7c0-1.1-0.1-1.8-0.2-2.1
		c-0.1-0.3-0.3-0.5-0.6-0.6c-0.3-0.1-1-0.2-2.2-0.2c-0.7,0-1.4,0-2,0.1c-1.8,4.7-3.7,8.9-6,12.8l-1.2-0.7c1.9-3.1,3.8-7.1,5.7-12
		c-1.1,0-2.7,0.1-4.7,0.4l-0.2-1.4l5.3-0.4c0.7-2,1.4-4.1,2.1-6.3l1.4,0.5C-119.4,385.7-120.1,387.6-120.8,389.5z M-106.5,397.9
		l-1.4,0.6c-1.2-3.8-2.8-7.1-4.8-9.9l1.3-0.7C-109.5,390.5-107.9,393.9-106.5,397.9z M-107.3,388l-1,0.8c-0.7-1.1-1.7-2.3-2.9-3.4
		l1.1-0.8C-108.9,385.8-108,386.9-107.3,388z M-104.9,386l-1.1,0.8c-1.1-1.4-2-2.5-2.9-3.3l1-0.8
		C-107.1,383.4-106.1,384.5-104.9,386z"/>
	<path d="M-78,400.1c-0.2,2-0.4,3.2-0.7,3.8c-0.3,0.6-0.7,1-1.2,1.2c-0.5,0.2-1.7,0.4-3.6,0.4c-1.6,0-2.6,0-3.2-0.1
		c-0.6-0.1-1-0.3-1.3-0.7c-0.3-0.4-0.4-0.8-0.4-1.3v-6.6h-3.9c-0.6,4.7-3.5,7.7-8.6,9.1l-1.1-1.3c5-1.2,7.7-3.8,8.1-7.8h-5v-14.2
		h17.7v14.2h-5.8v6.4c0,0.2,0.1,0.4,0.2,0.6c0.2,0.2,0.3,0.2,0.6,0.2l4.9,0c0.6,0,1-0.3,1.2-1c0.2-0.7,0.4-1.9,0.5-3.6L-78,400.1z
		 M-82.6,386.8V384h-14.8v2.8H-82.6z M-82.6,391.1v-2.9h-14.8v2.9H-82.6z M-82.6,395.5v-3h-14.8v3H-82.6z"/>
	<path d="M-74.3,391.3c5.6-2.3,9.9-3.4,13.1-3.4c2.2,0,4,0.7,5.4,2c1.4,1.3,2.1,3.1,2.1,5.2c0,2.5-1.1,4.5-3.2,6s-5.4,2.3-9.8,2.5
		l-0.7-1.4c8.1-0.4,12.2-2.7,12.2-7.2c0-1.6-0.6-3-1.7-4.1c-1.2-1.1-2.8-1.6-4.8-1.6c-2.6,0-6.7,1.1-12.2,3.3L-74.3,391.3z"/>
	<path d="M-39.1,389.5c0.7-0.1,1.4-0.1,2-0.1c1.2,0,2,0.1,2.5,0.4c0.5,0.2,0.8,0.6,1,1c0.2,0.4,0.3,1.2,0.3,2.3
		c0,2.6-0.2,4.8-0.6,6.7c-0.4,1.9-0.8,3-1.3,3.4c-0.5,0.4-1.1,0.6-1.7,0.6c-1.1,0-2.5-0.8-4.3-2.4l0.7-1.4c0.6,0.7,1.3,1.2,1.9,1.7
		c0.7,0.4,1.2,0.6,1.6,0.6c0.4,0,0.7-0.2,0.9-0.5c0.2-0.3,0.5-1.2,0.9-2.6c0.3-1.4,0.5-3.3,0.5-5.7c0-1.1-0.1-1.8-0.2-2.1
		c-0.1-0.3-0.3-0.5-0.6-0.6c-0.3-0.1-1-0.2-2.2-0.2c-0.7,0-1.4,0-2,0.1c-1.8,4.7-3.7,8.9-6,12.8l-1.2-0.7c1.9-3.1,3.8-7.1,5.7-12
		c-1.1,0-2.7,0.1-4.7,0.4l-0.2-1.4l5.3-0.4c0.7-2,1.4-4.1,2.1-6.3l1.4,0.5C-37.8,385.7-38.4,387.6-39.1,389.5z M-24.9,397.9
		l-1.4,0.6c-1.2-3.8-2.8-7.1-4.8-9.9l1.3-0.7C-27.9,390.5-26.2,393.9-24.9,397.9z"/>
	<path d="M-8.1,393.6c-0.6,1.2-1.3,2.2-2.1,3c-0.8,0.8-1.6,1.2-2.3,1.2c-0.7,0-1.2-0.3-1.6-0.9s-0.6-2.2-0.6-4.8
		c0-2.6,0.3-5.5,0.9-8.7l1.4,0.3c-0.7,2.9-1,5.7-1,8.3c0,1.6,0.1,2.7,0.2,3.3s0.4,0.9,0.8,0.9c0.5,0,1.1-0.5,1.8-1.4
		c0.7-1,1.2-1.8,1.5-2.4L-8.1,393.6z M-2.8,383.1c0.2,3.3,0.3,6,0.3,8.1c0,3.8-0.3,6.4-0.8,7.7c-0.6,1.3-1.3,2.5-2.2,3.4
		s-2.4,1.9-4.3,2.8L-11,404c1.8-0.7,3.3-1.6,4.4-2.7c1.1-1.1,1.8-2.4,2.2-3.8c0.4-1.4,0.6-3.7,0.6-6.7c0-2.4-0.1-4.9-0.4-7.5
		L-2.8,383.1z"/>
	<path d="M28.9,388.2l-8.8,0.2v4.1l7.2-0.2l0.1,1.4l-7.2,0.2v4.5c2.7,0.9,5.4,2.2,8,4l-0.7,1.2c-2.6-1.7-5-3-7.3-3.7
		c0,1.8-0.2,3-0.6,3.6c-0.4,0.6-1,1-1.8,1.3c-0.8,0.2-1.6,0.4-2.4,0.4c-1.4,0-2.5-0.4-3.3-1.1s-1.2-1.6-1.2-2.6
		c0-0.9,0.4-1.8,1.2-2.6s2.2-1.1,4.3-1.1c0.9,0,1.6,0.1,2.4,0.3v-4.2l-7.6,0.2l-0.1-1.4l7.7-0.2v-4.1l-9.3,0.2l-0.1-1.4l9.4-0.3
		v-4.1h1.5v4.1l8.7-0.2L28.9,388.2z M18.7,399.5c-0.9-0.2-1.7-0.3-2.6-0.3c-1.4,0-2.3,0.2-2.9,0.7c-0.6,0.5-0.9,1-0.9,1.5
		c0,0.6,0.3,1.1,0.8,1.6c0.5,0.4,1.4,0.7,2.5,0.7c0.9,0,1.6-0.1,2.1-0.4c0.5-0.3,0.8-0.7,0.9-1.1C18.6,401.7,18.7,400.8,18.7,399.5z
		"/>
	<path d="M57.3,391.2l-5.7,0.3v5.3c0,0.4-0.2,0.8-0.5,1.2c-0.3,0.4-0.7,0.6-1,0.8c-0.3,0.1-0.9,0.2-1.7,0.2c-0.9,0-1.9-0.1-2.9-0.2
		l-0.2-1.4c1,0.1,2.3,0.2,3.9,0.2c0.2,0,0.4-0.1,0.6-0.3c0.2-0.2,0.3-0.4,0.3-0.7v-5l-8.5,0.4v9.1c0,0.8,0.2,1.3,0.7,1.5
		c0.5,0.2,2.1,0.3,4.7,0.3c2.7,0,5-0.1,6.8-0.3l-0.1,1.4c-2.7,0.2-4.9,0.3-6.7,0.3c-1.7,0-3,0-3.8-0.1c-0.8-0.1-1.4-0.2-1.8-0.5
		s-0.7-0.5-1-1c-0.3-0.4-0.4-0.9-0.4-1.5v-9l-5.4,0.2l-0.1-1.3l5.4-0.2V385h1.5v5.6l8.5-0.4v-6.5h1.5v6.4l5.7-0.3L57.3,391.2z"/>
	<path d="M84.1,393.9c-0.4,2.9-1.2,5.3-2.4,7.2c-1.3,1.9-2.7,2.9-4.3,2.9c-0.5,0-1-0.1-1.5-0.4c-0.5-0.2-0.8-0.6-1.2-1.1
		c-0.3-0.5-0.6-1.3-0.9-2.5c-0.3-1.2-0.5-2.5-0.7-4c-0.1-0.7-0.5-1-1.2-1c-0.9,0-2,0.4-3.2,1.2c-1.2,0.8-1.9,1.4-2,1.6l-2.9,5.6
		l-1.3-0.6l9.9-19.4l1.3,0.6c-2.1,4-4,7.7-5.6,11c1.6-1,2.9-1.4,3.9-1.4c1,0,1.6,0.3,2,0.8c0.4,0.6,0.7,1.8,0.9,3.6
		c0.2,1.8,0.5,3,0.9,3.6c0.4,0.6,0.9,0.9,1.6,0.9c1.3,0,2.4-1,3.5-2.9c1.1-1.9,1.7-4.1,1.9-6.5L84.1,393.9z"/>
</g>
</svg>
