<?xml version="1.0" encoding="utf-8"?>
<!-- Generator: Adobe Illustrator 19.1.0, SVG Export Plug-In . SVG Version: 6.00 Build 0)  -->
<svg version="1.1" id="Layer_1" xmlns="http://www.w3.org/2000/svg" xmlns:xlink="http://www.w3.org/1999/xlink" x="0px" y="0px"
	 viewBox="0 0 335 153" style="enable-background:new 0 0 335 153;" xml:space="preserve">
<style type="text/css">
	.st0{fill:#FAA33D;}
	.st1{clip-path:url(#SVGID_2_);}
	.st2{fill:#E28B25;}
	.st3{fill:#FFFFFF;}
</style>
<rect x="0.3" y="0.1" class="st0" width="335" height="153"/>
<g>
	<defs>
		<rect id="SVGID_1_" x="0.3" y="0.1" width="335" height="153"/>
	</defs>
	<clipPath id="SVGID_2_">
		<use xlink:href="#SVGID_1_"  style="overflow:visible;"/>
	</clipPath>
	<g class="st1">
		<polygon class="st2" points="259.4,83 308,153 379.6,153 299.9,59 268.5,59 		"/>
		<g>
			<path class="st3" d="M282.9,94.3c0-0.4,0-0.7,0-1c0-9.3,0-18.6,0-27.9c0-0.6-0.1-0.9-0.7-1.2c-0.7-0.4-1.3-1.1-1.7-1.7
				c-0.3-0.5-0.6-0.6-1.1-0.6c-3.3,0-6.7,0-10,0c-1.1,0-1.2-0.1-1.3-1.2c0-1.7,0-1.7,1.7-1.7c3.2,0,6.4,0,9.7,0c0.5,0,0.7-0.1,1-0.6
				c0.8-1.5,2.1-2.4,3.9-2.4c1.7,0,3.1,0.8,3.9,2.3c0.3,0.5,0.6,0.6,1.1,0.6c3.4,0,6.7,0,10.1,0c1,0,1.2,0.1,1.2,1.1
				c0,1.8,0,1.8-1.8,1.8c-3.2,0-6.4,0-9.7,0c-0.5,0-0.6,0.2-0.9,0.5c-0.5,0.7-1.2,1.3-1.9,1.9c-0.3,0.2-0.5,0.4-0.5,0.8
				c0,9.6,0,19.1,0,28.7c0,0.1,0,0.3,0,0.5c0.3,0,0.5,0,0.8,0c4.3,0,8.5,0,12.8,0c1,0,1.1,0.1,1.1,1.2c0,1.8,0,1.8-1.8,1.8
				c-9.8,0-19.6,0-29.3,0c-1.2,0-1.3-0.1-1.3-1.3c0-1.7,0-1.7,1.7-1.7c4.1,0,8.1,0,12.2,0C282.2,94.3,282.5,94.3,282.9,94.3z
				 M286.2,60.4c0-1-0.8-1.8-1.8-1.8s-1.9,0.8-1.9,1.9c0,1,0.8,1.8,1.8,1.8C285.3,62.3,286.2,61.4,286.2,60.4z"/>
			<path class="st3" d="M269.5,89.2c-3-0.2-6-0.8-8.4-2.9c-1-0.9-1.8-2-1.8-3.4c0-0.4,0.1-0.9,0.3-1.3c2.3-4.3,4.6-8.6,6.9-12.8
				c0.6-1,1.1-2.1,1.7-3.1c0.7-1.2,2-1.2,2.7,0c2.8,5.1,5.6,10.2,8.3,15.3c1,2,0.6,3.8-1.2,5.3c-2,1.7-4.3,2.3-6.8,2.7
				C270.7,89.1,270.2,89.1,269.5,89.2z M269.6,66.3c-3,5.5-5.9,10.8-8.8,16.2c5.9,0,11.8,0,17.7,0C275.5,77.1,272.6,71.7,269.6,66.3
				z"/>
			<path class="st3" d="M299.2,89.2c-3.2-0.3-6.2-0.8-8.6-2.9c-1-0.9-1.7-2-1.8-3.4c0-0.4,0.1-0.8,0.3-1.2c2.3-4.3,4.6-8.6,6.9-12.9
				c0.6-1,1.1-2.1,1.7-3.1c0.7-1.2,2-1.2,2.6,0c2.8,5.2,5.7,10.3,8.5,15.5c1,1.8,0.5,3.6-1.2,5.1s-3.7,2.1-5.8,2.6
				C300.9,89,300,89.1,299.2,89.2z M299.1,66.3c-3,5.5-5.9,10.8-8.8,16.2c5.9,0,11.8,0,17.7,0C305,77.1,302.1,71.8,299.1,66.3z"/>
		</g>
	</g>
</g>
</svg>
