<?xml version="1.0" encoding="utf-8"?>
<!-- Generator: Adobe Illustrator 19.1.0, SVG Export Plug-In . SVG Version: 6.00 Build 0)  -->
<svg version="1.1" id="Layer_1" xmlns="http://www.w3.org/2000/svg" xmlns:xlink="http://www.w3.org/1999/xlink" x="0px" y="0px"
	 viewBox="0 0 335 153" style="enable-background:new 0 0 335 153;" xml:space="preserve">
<style type="text/css">
	.st0{fill:#40BFF5;}
	.st1{clip-path:url(#SVGID_2_);}
	.st2{fill:#159DD7;}
	.st3{fill:#FFFFFF;}
</style>
<rect x="0.3" y="0.1" class="st0" width="335" height="153"/>
<g>
	<defs>
		<rect id="SVGID_1_" x="0.3" y="0.1" width="335" height="153"/>
	</defs>
	<clipPath id="SVGID_2_">
		<use xlink:href="#SVGID_1_"  style="overflow:visible;"/>
	</clipPath>
	<g class="st1">
		<polygon class="st2" points="266.4,96.4 313.9,63.7 371.5,121.4 371.5,153 328.6,153 		"/>
		<g>
			<path class="st3" d="M315.4,67.1v10.7h-49.5V67.1c0-1.4,0.5-2.3,1.4-3.3c0.9-0.9,1.9-1.4,3.3-1.4h9.8v-4.2c0-0.9,0.5-1.4,0.9-1.9
				c0.5-0.5,0.9-0.9,1.9-0.9h15.9c0.9,0,1.4,0.5,1.9,0.9c0.5,0.5,0.9,0.9,0.9,1.9v4.2h9.8c1.4,0,2.3,0.5,3.3,1.4
				C314.9,64.7,315.4,65.7,315.4,67.1z M315.4,80.1v13.1c0,1.4-0.5,2.3-1.4,3.3c-0.9,0.9-1.9,1.4-3.3,1.4H270
				c-1.4,0-2.3-0.5-3.3-1.4c-0.9-0.9-1.4-1.9-1.4-3.3V80.1H284v4.2c0,0.5,0,0.9,0.5,1.4s0.9,0.5,1.4,0.5h8.9c0.5,0,0.9,0,1.4-0.5
				s0.5-0.9,0.5-1.4v-4.2H315.4z M283.6,62.4h14v-3.7h-14V62.4z M294.4,80.1v3.7h-7v-3.7H294.4z"/>
		</g>
	</g>
</g>
</svg>
