<?xml version="1.0" encoding="utf-8"?>
<!-- Generator: Adobe Illustrator 19.1.0, SVG Export Plug-In . SVG Version: 6.00 Build 0)  -->
<svg version="1.1" id="Layer_1" xmlns="http://www.w3.org/2000/svg" xmlns:xlink="http://www.w3.org/1999/xlink" x="0px" y="0px"
	 viewBox="0 0 335 153" style="enable-background:new 0 0 335 153;" xml:space="preserve">
<style type="text/css">
	.st0{fill:#0076B3;}
	.st1{fill:#006BA3;}
	.st2{fill:#FFFFFF;}
</style>
<rect x="0.3" y="0.1" class="st0" width="335" height="153"/>
<path class="st1" d="M224.8,87.9c0,0,20.2,19.8,35.6,6.5c15.4-13.3,8.3-31.1,8.3-31.1l66.3,66.8l0,22.9h-49.8L224.8,87.9z"/>
<path class="st2" d="M269.1,63.9c2.2,3.9,3.3,8.3,3.3,12.8c0,4.4-1.1,8.9-3.3,12.8s-5.6,6.7-8.9,8.9c-3.9,2.2-8.3,3.3-12.8,3.3
	s-8.9-1.1-12.8-3.3c-3.9-2.2-6.7-5.6-8.9-8.9c-2.2-3.9-3.3-8.3-3.3-12.8c0-4.4,1.1-8.9,3.3-12.8s5.6-6.7,8.9-8.9
	c3.9-2.2,8.3-3.3,12.8-3.3s8.9,1.1,12.8,3.3C263.5,57.2,266.8,60,269.1,63.9z M262.4,85.5c1.7-2.8,2.2-5.6,2.2-8.9s-0.6-6.1-2.2-8.9
	c-1.7-2.8-3.9-5-6.7-6.7c-2.8-1.7-5.6-2.2-8.9-2.2s-6.1,0.6-8.9,2.2c-2.8,1.7-5,3.9-6.7,6.7s-2.2,5.6-2.2,8.9s0.6,6.1,2.2,8.9
	s3.9,5,6.7,6.7s5.6,2.2,8.9,2.2s6.1-0.6,8.9-2.2C259.1,90.5,261.3,88.3,262.4,85.5z M251.3,65v14.4c0,0.6,0,0.6-0.6,0.6l-0.6,0.6
	h-10.6c-0.6,0-0.6,0-0.6-0.6l-0.6-0.6v-2.2c0-0.6,0-0.6,0.6-0.6l0.6-0.6h7.2V64.4c0-0.6,0-0.6,0.6-0.6l0.6-0.6h2.2
	c0.6,0,0.6,0,0.6,0.6C251.3,64.4,251.3,65,251.3,65z"/>
</svg>
