<?xml version="1.0" encoding="utf-8"?>
<!-- Generator: Adobe Illustrator 19.1.0, SVG Export Plug-In . SVG Version: 6.00 Build 0)  -->
<svg version="1.1" id="Layer_1" xmlns="http://www.w3.org/2000/svg" xmlns:xlink="http://www.w3.org/1999/xlink" x="0px" y="0px"
	 viewBox="0 0 335 153" style="enable-background:new 0 0 335 153;" xml:space="preserve">
<style type="text/css">
	.st0{fill:#EB5E4C;}
	.st1{clip-path:url(#SVGID_2_);}
	.st2{fill:#D64735;}
	.st3{fill:#FFFFFF;}
</style>
<rect x="0.3" y="0.1" class="st0" width="335" height="153"/>
<g>
	<defs>
		<rect id="SVGID_1_" x="0.3" y="0.1" width="335" height="153"/>
	</defs>
	<clipPath id="SVGID_2_">
		<use xlink:href="#SVGID_1_"  style="overflow:visible;"/>
	</clipPath>
	<g class="st1">
		<polygon class="st2" points="259,96.9 301.6,55.4 380,131.2 380,153.1 329.5,153.2 		"/>
		<g>
			<path class="st3" d="M306.4,63.9c1,1,1,2.5,0.5,4.1l-8.1,26.9c-0.5,1.5-1,2.5-2.5,3c-1,1-2.5,1.5-3.6,1.5h-27.4
				c-1.5,0-3-0.5-4.6-1.5c-1.5-1-2.5-2.5-3-4.1c-0.5-1.5-0.5-2.5,0-3.6c0,0,0-0.5,0-1s0-1,0-1v-0.5c0-0.5,0-0.5,0-0.5v-0.5l0.5-0.5
				c0-0.5,0.5-0.5,0.5-0.5c0.5-0.5,1-1.5,1.5-2.5s0.5-2,1-2.5c0,0,0-0.5,0-1s0-0.5,0-1c0,0,0-0.5,0.5-1s0.5-0.5,0.5-0.5
				c0.5-0.5,1-1.5,1-2.5c0.5-1,0.5-2,0.5-2.5c0,0,0-0.5,0-1s0-0.5,0-1s0.5-0.5,0.5-1s0.5-0.5,0.5-0.5c0.5-0.5,1-1.5,1.5-2.5
				s0.5-2,1-3c0,0,0-0.5,0-1s0-0.5,0-1c0,0,0-0.5,0.5-0.5l0.5-0.5c0-0.5,0.5-0.5,0.5-0.5s0.5-0.5,0.5-1s0.5-0.5,0.5-1s0.5-0.5,0.5-1
				s0.5-0.5,0.5-1c0,0,0.5-0.5,1-0.5s0.5-0.5,1-0.5s1,0,1.5,0l0,0c0.5,0,1-0.5,1.5-0.5h22.9c1.5,0,2.5,0.5,3.6,1.5s1,2.5,0.5,4.1
				l-8.1,26.9c-0.5,2.5-1.5,4.1-2,4.6s-2,1-4.1,1h-25.9c-0.5,0-1,0-1,0.5s0,0.5,0,1.5c0.5,1.5,2,2,4.1,2h27.4c0.5,0,1,0,1.5-0.5
				s1-0.5,1-1l9.1-29.5c0-0.5,0-1,0-1.5C305.4,63.4,306.4,63.4,306.4,63.9z M272.3,72.1c0,0.5,0,0.5,0,0.5l0.5,0.5h18.3
				c0.5,0,0.5,0,1-0.5l0.5-0.5l0.5-2c0-0.5,0-0.5,0-0.5l-0.5-0.5h-18.3c-0.5,0-0.5,0-1,0.5l-0.5,0.5L272.3,72.1z M274.9,64.4
				c0,0.5,0,0.5,0,0.5l0.5,0.5h18.3c0.5,0,0.5,0,0.5-0.5l0.5-0.5l0.5-2c0-0.5,0-0.5,0-0.5l-0.5-0.5h-18.3c-0.5,0-0.5,0-1,0.5
				l-0.5,0.5V64.4z"/>
		</g>
	</g>
</g>
</svg>
