<?xml version="1.0" encoding="utf-8"?>
<!-- Generator: Adobe Illustrator 19.1.0, SVG Export Plug-In . SVG Version: 6.00 Build 0)  -->
<svg version="1.1" id="Layer_1" xmlns="http://www.w3.org/2000/svg" xmlns:xlink="http://www.w3.org/1999/xlink" x="0px" y="0px"
	 viewBox="-284 102.5 224.6 64" style="enable-background:new -284 102.5 224.6 64;" xml:space="preserve">
<style type="text/css">
	.st0{display:none;}
	.st1{display:inline;}
	.st2{fill:#0B142F;}
	.st3{fill:#1D2088;}
	.st4{fill:#111042;}
</style>
<g class="st0">
	<g class="st1">
		<polygon class="st2" points="-534,378.3 -521.5,378.3 -521.5,368.8 		"/>
		<polygon class="st2" points="-520,368.8 -501,368.8 -501,410.8 -534,410.8 -534,380.8 -520,380.8 		"/>
	</g>
	<g class="st1">
		<path class="st2" d="M-474.4,369v27.5c0,4.1,0,6.8-0.1,7.9c-0.1,1.2-0.5,2.2-1.2,3.2c-0.7,1-1.6,1.6-2.8,2s-3,0.5-5.3,0.5h-5.4
			v-7.2c0.6,0.1,1.1,0.1,1.4,0.1c0.8,0,1.4-0.2,1.8-0.6s0.7-0.8,0.8-1.4c0.1-0.5,0.1-1.6,0.1-3.2v-29h10.7V369z"/>
		<path class="st2" d="M-447.3,388.3v8.3c0,3-0.2,5.3-0.5,6.7c-0.3,1.4-1,2.7-2,4c-1,1.2-2.3,2.1-3.9,2.7c-1.4,0.5-3.2,0.8-5.3,0.8
			c-2.3,0-4.2-0.3-5.8-0.8c-1.6-0.5-2.7-1.2-3.6-2.2c-0.9-1-1.5-2.2-1.9-3.7c-0.4-1.4-0.6-3.6-0.6-6.4v-8.6c0-3.1,0.3-5.6,1-7.4
			c0.7-1.8,1.9-3.2,3.7-4.2c1.8-1.1,4-1.6,6.8-1.6c2.3,0,4.3,0.3,5.9,1c1.6,0.7,2.9,1.6,3.8,2.7c0.9,1.1,1.5,2.2,1.8,3.4
			C-447.5,384.1-447.3,385.9-447.3,388.3z M-457.6,385.7c0-1.7-0.1-2.8-0.3-3.3c-0.1-0.4-0.5-0.6-1.1-0.6c-0.6,0-1,0.2-1.2,0.7
			c-0.2,0.4-0.3,1.5-0.3,3.3V401c0,1.6,0.1,2.6,0.3,3.1s0.6,0.7,1.2,0.7c0.6,0,1-0.2,1.2-0.7c0.2-0.4,0.3-1.4,0.3-2.8v-15.6
			L-457.6,385.7L-457.6,385.7z"/>
		<path class="st2" d="M-433.6,369v9.7c0.8-1,1.8-1.7,2.8-2.2s2.2-0.7,3.4-0.7c1.4,0,2.6,0.2,3.7,0.7c1,0.4,1.8,1.1,2.4,1.9
			c0.5,0.8,0.9,1.6,1,2.3c0.1,0.7,0.2,2.4,0.2,4.9v15.2c0,2.5-0.2,4.3-0.5,5.5c-0.3,1.2-1.1,2.3-2.3,3.2c-1.2,0.9-2.7,1.3-4.3,1.3
			c-1.2,0-2.3-0.3-3.4-0.8c-1.1-0.5-2-1.3-2.9-2.4l-0.7,2.6h-9.6V369H-433.6z M-430.5,386c0-1.7-0.1-2.9-0.3-3.4
			c-0.2-0.5-0.7-0.8-1.3-0.8s-1,0.2-1.2,0.7c-0.2,0.5-0.3,1.6-0.3,3.5v14.6c0,1.8,0.1,3,0.3,3.5c0.2,0.5,0.6,0.8,1.3,0.8
			c0.6,0,1.1-0.3,1.3-0.8c0.2-0.5,0.3-1.8,0.3-3.8V386L-430.5,386L-430.5,386z"/>
		<path class="st2" d="M-407.4,369h10.7c3.4,0,5.9,0.3,7.7,0.8c1.7,0.5,3.1,1.6,4.2,3.2s1.6,4.2,1.6,7.7c0,2.4-0.4,4.1-1.1,5
			c-0.8,0.9-2.2,1.7-4.5,2.2c2.5,0.6,4.2,1.5,5,2.8c0.9,1.3,1.3,3.3,1.3,6v3.8c0,2.8-0.3,4.8-1,6.2c-0.6,1.3-1.6,2.3-3,2.7
			c-1.4,0.5-4.2,0.7-8.5,0.7h-12.4C-407.4,410.1-407.4,369-407.4,369z M-396.6,376v9.2c0.5,0,0.8,0,1.1,0c1.1,0,1.7-0.3,2-0.8
			s0.4-2,0.4-4.4c0-1.3-0.1-2.2-0.4-2.7c-0.2-0.5-0.5-0.8-0.9-1S-395.5,376-396.6,376z M-396.6,391.6v11.5c1.5-0.1,2.5-0.3,2.9-0.7
			c0.4-0.4,0.6-1.5,0.6-3.1v-3.8c0-1.8-0.2-2.8-0.6-3.2C-394.1,391.9-395.1,391.7-396.6,391.6z"/>
		<path class="st2" d="M-355.6,388.3v8.3c0,3-0.2,5.3-0.5,6.7c-0.3,1.4-1,2.7-2,4c-1,1.2-2.3,2.1-3.9,2.7s-3.4,0.9-5.4,0.9
			c-2.3,0-4.2-0.3-5.8-0.8s-2.8-1.3-3.7-2.3s-1.5-2.2-1.9-3.7c-0.4-1.4-0.6-3.6-0.6-6.4v-8.6c0-3.1,0.3-5.6,1-7.4
			c0.7-1.8,1.9-3.2,3.7-4.2c1.8-1.1,4-1.6,6.8-1.6c2.3,0,4.3,0.3,5.9,1c1.7,0.7,2.9,1.6,3.8,2.7c0.9,1.1,1.5,2.2,1.8,3.4
			C-355.8,384.1-355.6,385.9-355.6,388.3z M-365.9,385.7c0-1.7-0.1-2.8-0.3-3.3c-0.2-0.4-0.6-0.7-1.2-0.7s-1,0.2-1.2,0.7
			c-0.2,0.4-0.3,1.5-0.3,3.3v15.2c0,1.6,0.1,2.6,0.3,3.1c0.2,0.5,0.6,0.7,1.2,0.7s1-0.2,1.2-0.7c0.2-0.4,0.3-1.4,0.3-2.8V385.7z"/>
		<path class="st2" d="M-343.1,389.5h-9.6v-2.3c0-2.6,0.3-4.6,0.9-6c0.6-1.4,1.8-2.7,3.6-3.8c1.8-1.1,4.2-1.6,7.1-1.6
			c3.5,0,6.1,0.6,7.9,1.8c1.8,1.2,2.8,2.7,3.2,4.5s0.5,5.5,0.5,11.1v16.9h-10v-3c-0.6,1.2-1.4,2.1-2.4,2.7s-2.2,0.9-3.5,0.9
			c-1.8,0-3.4-0.5-4.9-1.5s-2.3-3.2-2.3-6.6v-2.8c0-2.5,0.4-4.2,1.2-5.2c0.8-0.9,2.8-2,5.9-3.2c3.4-1.3,5.2-2.2,5.4-2.7
			c0.2-0.5,0.4-1.4,0.4-2.8c0-1.8-0.1-2.9-0.4-3.4c-0.3-0.5-0.7-0.8-1.3-0.8c-0.7,0-1.1,0.2-1.3,0.7c-0.2,0.4-0.3,1.6-0.3,3.5
			L-343.1,389.5L-343.1,389.5z M-339.8,394.1c-1.6,1.2-2.6,2.2-2.9,3c-0.3,0.8-0.4,2-0.4,3.5c0,1.7,0.1,2.9,0.3,3.4
			c0.2,0.5,0.7,0.8,1.4,0.8c0.6,0,1.1-0.2,1.3-0.6c0.2-0.4,0.3-1.4,0.3-3.1V394.1L-339.8,394.1z"/>
		<path class="st2" d="M-315.7,376.4l-0.4,4.4c1.5-3.2,3.7-4.9,6.5-5v11.9c-1.9,0-3.3,0.3-4.1,0.8c-0.9,0.5-1.4,1.2-1.6,2.1
			c-0.2,0.9-0.3,3-0.3,6.3v13.3H-326v-33.8L-315.7,376.4L-315.7,376.4z"/>
		<path class="st2" d="M-284,369v41.2h-10.3v-2.4c-1,1-2,1.8-3.1,2.3s-2.2,0.8-3.4,0.8c-1.6,0-3-0.4-4.1-1.3
			c-1.2-0.8-1.9-1.8-2.3-2.9c-0.3-1.1-0.5-2.9-0.5-5.4v-15.9c0-2.6,0.2-4.4,0.5-5.5c0.3-1.1,1.1-2,2.3-2.9c1.2-0.8,2.6-1.2,4.2-1.2
			c1.3,0,2.4,0.2,3.5,0.7c1.1,0.5,2,1.1,2.9,2.1V369L-284,369L-284,369z M-294.3,384.9c0-1.2-0.1-2.1-0.3-2.5
			c-0.2-0.4-0.6-0.6-1.3-0.6c-0.6,0-1,0.2-1.2,0.6c-0.2,0.4-0.3,1.2-0.3,2.6v16.5c0,1.4,0.1,2.3,0.3,2.7c0.2,0.4,0.6,0.6,1.2,0.6
			c0.7,0,1.1-0.2,1.3-0.7c0.2-0.5,0.3-1.7,0.3-3.5V384.9z"/>
	</g>
	<g class="st1">
		<path d="M-552.8,413.1v1.9h-1.7v-1.9H-552.8z"/>
		<path d="M-549.3,413.1v1.9h-1.8v-1.9H-549.3z"/>
		<path d="M-545.9,413.1v1.9h-1.8v-1.9H-545.9z"/>
		<path d="M-542.5,413.1v1.9h-1.8v-1.9H-542.5z"/>
		<path d="M-539.1,413.1v1.9h-1.8v-1.9H-539.1z"/>
		<path d="M-535.7,413.1v1.9h-1.8v-1.9H-535.7z"/>
		<path d="M-532.3,413.1v1.9h-1.7v-1.9H-532.3z"/>
		<path d="M-528.8,413.1v1.9h-1.8v-1.9H-528.8z"/>
		<path d="M-525.4,413.1v1.9h-1.8v-1.9H-525.4z"/>
		<path d="M-522,413.1v1.9h-1.8v-1.9H-522z"/>
		<path d="M-518.6,413.1v1.9h-1.8v-1.9H-518.6z"/>
		<path d="M-515.2,413.1v1.9h-1.8v-1.9H-515.2z"/>
		<path d="M-511.8,413.1v1.9h-1.8v-1.9H-511.8z"/>
		<path d="M-508.4,413.1v1.9h-1.8v-1.9H-508.4z"/>
		<path d="M-504.9,413.1v1.9h-1.8v-1.9H-504.9z"/>
		<path d="M-501.5,413.1v1.9h-1.8v-1.9H-501.5z"/>
		<path d="M-498.1,413.1v1.9h-1.8v-1.9H-498.1z"/>
		<path d="M-494.7,413.1v1.9h-1.8v-1.9H-494.7z"/>
		<path d="M-491.3,413.1v1.9h-1.8v-1.9H-491.3z"/>
		<path d="M-487.9,413.1v1.9h-1.8v-1.9H-487.9z"/>
		<path d="M-484.5,413.1v1.9h-1.8v-1.9H-484.5z"/>
		<path d="M-481,413.1v1.9h-1.8v-1.9H-481z"/>
		<path d="M-477.6,413.1v1.9h-1.8v-1.9H-477.6z"/>
		<path d="M-474.2,413.1v1.9h-1.8v-1.9H-474.2z"/>
		<path d="M-470.8,413.1v1.9h-1.8v-1.9H-470.8z"/>
		<path d="M-467.4,413.1v1.9h-1.8v-1.9H-467.4z"/>
		<path d="M-464,413.1v1.9h-1.8v-1.9H-464z"/>
		<path d="M-460.6,413.1v1.9h-1.8v-1.9H-460.6z"/>
		<path d="M-457.1,413.1v1.9h-1.8v-1.9H-457.1z"/>
		<path d="M-453.7,413.1v1.9h-1.8v-1.9H-453.7z"/>
		<path d="M-450.3,413.1v1.9h-1.8v-1.9H-450.3z"/>
		<path d="M-446.9,413.1v1.9h-1.8v-1.9H-446.9z"/>
		<path d="M-443.5,413.1v1.9h-1.8v-1.9H-443.5z"/>
		<path d="M-440.1,413.1v1.9h-1.8v-1.9H-440.1z"/>
		<path d="M-436.6,413.1v1.9h-1.8v-1.9H-436.6z"/>
		<path d="M-433.2,413.1v1.9h-1.8v-1.9H-433.2z"/>
		<path d="M-429.8,413.1v1.9h-1.8v-1.9H-429.8z"/>
		<path d="M-426.4,413.1v1.9h-1.8v-1.9H-426.4z"/>
		<path d="M-423,413.1v1.9h-1.8v-1.9H-423z"/>
		<path d="M-419.6,413.1v1.9h-1.8v-1.9H-419.6z"/>
		<path d="M-416.2,413.1v1.9h-1.8v-1.9H-416.2z"/>
		<path d="M-412.7,413.1v1.9h-1.8v-1.9H-412.7z"/>
		<path d="M-409.3,413.1v1.9h-1.8v-1.9H-409.3z"/>
		<path d="M-405.9,413.1v1.9h-1.8v-1.9H-405.9z"/>
		<path d="M-402.5,413.1v1.9h-1.8v-1.9H-402.5z"/>
		<path d="M-399.1,413.1v1.9h-1.8v-1.9H-399.1z"/>
		<path d="M-395.7,413.1v1.9h-1.8v-1.9H-395.7z"/>
		<path d="M-392.3,413.1v1.9h-1.7v-1.9H-392.3z"/>
		<path d="M-388.8,413.1v1.9h-1.8v-1.9H-388.8z"/>
		<path d="M-385.4,413.1v1.9h-1.8v-1.9H-385.4z"/>
		<path d="M-382,413.1v1.9h-1.8v-1.9H-382z"/>
		<path d="M-378.6,413.1v1.9h-1.8v-1.9H-378.6z"/>
		<path d="M-375.2,413.1v1.9h-1.8v-1.9H-375.2z"/>
		<path d="M-371.8,413.1v1.9h-1.8v-1.9H-371.8z"/>
		<path d="M-368.4,413.1v1.9h-1.8v-1.9H-368.4z"/>
		<path d="M-364.9,413.1v1.9h-1.8v-1.9H-364.9z"/>
		<path d="M-361.5,413.1v1.9h-1.8v-1.9H-361.5z"/>
		<path d="M-358.1,413.1v1.9h-1.8v-1.9H-358.1z"/>
		<path d="M-354.7,413.1v1.9h-1.8v-1.9H-354.7z"/>
		<path d="M-351.3,413.1v1.9h-1.8v-1.9H-351.3z"/>
		<path d="M-347.9,413.1v1.9h-1.8v-1.9H-347.9z"/>
		<path d="M-344.4,413.1v1.9h-1.8v-1.9H-344.4z"/>
		<path d="M-341,413.1v1.9h-1.8v-1.9H-341z"/>
		<path d="M-337.6,413.1v1.9h-1.8v-1.9H-337.6z"/>
		<path d="M-334.2,413.1v1.9h-1.8v-1.9H-334.2z"/>
		<path d="M-330.8,413.1v1.9h-1.8v-1.9H-330.8z"/>
		<path d="M-327.4,413.1v1.9h-1.8v-1.9H-327.4z"/>
		<path d="M-324,413.1v1.9h-1.8v-1.9H-324z"/>
		<path d="M-320.5,413.1v1.9h-1.8v-1.9H-320.5z"/>
		<path d="M-317.1,413.1v1.9h-1.8v-1.9H-317.1z"/>
		<path d="M-313.7,413.1v1.9h-1.8v-1.9H-313.7z"/>
		<path d="M-310.3,413.1v1.9h-1.8v-1.9H-310.3z"/>
		<path d="M-306.9,413.1v1.9h-1.8v-1.9H-306.9z"/>
		<path d="M-303.5,413.1v1.9h-1.8v-1.9H-303.5z"/>
		<path d="M-300.1,413.1v1.9h-1.8v-1.9H-300.1z"/>
		<path d="M-296.6,413.1v1.9h-1.8v-1.9H-296.6z"/>
		<path d="M-293.2,413.1v1.9h-1.8v-1.9H-293.2z"/>
		<path d="M-289.8,413.1v1.9h-1.8v-1.9H-289.8z"/>
		<path d="M-286.4,413.1v1.9h-1.8v-1.9H-286.4z"/>
		<path d="M-283,413.1v1.9h-1.8v-1.9H-283z"/>
		<path d="M-279.6,413.1v1.9h-1.8v-1.9H-279.6z"/>
		<path d="M-276.1,413.1v1.9h-1.8v-1.9H-276.1z"/>
		<path d="M-272.7,413.1v1.9h-1.8v-1.9H-272.7z"/>
		<path d="M-269.3,413.1v1.9h-1.8v-1.9H-269.3z"/>
		<path d="M-265.9,413.1v1.9h-1.8v-1.9H-265.9z"/>
		<path d="M-262.5,413.1v1.9h-1.8v-1.9H-262.5z"/>
		<path d="M-259.1,413.1v1.9h-1.8v-1.9H-259.1z"/>
		<path d="M-255.7,413.1v1.9h-1.8v-1.9H-255.7z"/>
	</g>
	<g class="st1">
		<path class="st3" d="M-542.3,426.1c0,0.4,0,0.7,0,1.2c-0.1,1.5-1,2.7-2.9,2.7c-1.7,0-2.8-1.1-2.8-2.9v-0.5h0.9v0.5
			c0.1,1.6,0.8,2.2,2,2.2s1.9-0.8,2-2c0-0.3,0-0.6,0-1.1v-6h0.9L-542.3,426.1L-542.3,426.1z"/>
		<path class="st3" d="M-536.1,428.5l-0.4,0.8c-0.5,0.5-1.2,0.8-2.1,0.8c-1.4,0-2.4-0.7-2.4-2.1c0-1.7,1.6-2.5,4.3-2.5h0.5v-0.3
			c0-0.3,0-0.6,0-0.9c-0.1-0.9-0.6-1.3-1.7-1.3c-1,0-1.8,0.5-1.9,1.7h-0.9c0.1-1.5,1.2-2.4,2.8-2.4c1.6,0,2.4,0.7,2.5,2
			c0,0.3,0,0.6,0,1v2.6c0,0.7,0,1.2,0.1,2.1h-0.7L-536.1,428.5z M-536.1,426.9V426c-2.1-0.1-3.8,0.4-3.8,1.8c0,0.9,0.6,1.4,1.7,1.4
			C-537,429.3-536.1,428.3-536.1,426.9z"/>
		<path class="st3" d="M-526.4,426c0,2.7-1.7,4-3.5,4c-0.7,0-1.4-0.2-1.9-0.7l-0.5-0.8v4h-0.9v-10.2h0.9v1.5l0.5-0.8
			c0.5-0.5,1.2-0.8,2.1-0.8C-527.6,422.2-526.4,423.8-526.4,426z M-527.4,426.1c0-1.8-0.9-3.2-2.5-3.2c-1.3,0-2.5,0.8-2.5,3v0.6
			c0,2.1,1.3,2.8,2.4,2.8C-528.4,429.3-527.4,428.1-527.4,426.1z"/>
		<path class="st3" d="M-520.7,428.5l-0.3,0.7c-0.5,0.5-1.2,0.8-2.1,0.8c-1.4,0-2.4-0.7-2.4-2.1c0-1.7,1.6-2.5,4.3-2.5h0.5v-0.3
			c0-0.3,0-0.6,0-0.9c-0.1-0.9-0.6-1.3-1.7-1.3c-1,0-1.8,0.5-1.9,1.7h-0.9c0.1-1.5,1.2-2.4,2.8-2.4c1.6,0,2.4,0.7,2.5,2
			c0,0.3,0,0.6,0,1v2.6c0,0.7,0,1.2,0.1,2.1h-0.9L-520.7,428.5z M-520.7,426.9V426c-2.1-0.1-3.8,0.4-3.8,1.8c0,0.9,0.6,1.4,1.7,1.4
			C-521.5,429.3-520.7,428.3-520.7,426.9z"/>
		<path class="st3" d="M-511.7,425.7v4.1h-0.9v-4c0-0.4,0-0.7,0-1.1c-0.1-1-0.7-1.7-1.9-1.7c-1.2,0-2.3,0.9-2.3,3.2v3.6h-0.9v-7.4
			h0.9v1.4l0.4-0.8c0.6-0.6,1.3-0.8,2.1-0.8c1.6,0,2.5,0.9,2.6,2.2C-511.7,424.8-511.7,425.1-511.7,425.7z"/>
		<path class="st3" d="M-505.3,426.3l-1.3,3.5h-0.9l3.6-9.7h1.2l3.5,9.7h-0.9l-1.3-3.5H-505.3z M-501.7,425.5l-1.6-4.7l-1.7,4.7
			H-501.7z"/>
		<path class="st3" d="M-493.3,424.5h-0.9c-0.2-1-0.8-1.6-1.8-1.6c-0.9,0-1.5,0.5-1.5,1.3c0,0.9,0.7,1.2,1.8,1.5
			c1.7,0.4,2.5,1,2.5,2.3s-1.1,2-2.6,2s-2.6-0.7-2.8-2.4h0.9c0.2,1.3,1,1.7,2,1.7c0.9,0,1.7-0.4,1.7-1.3c0-0.8-0.5-1.2-2-1.6
			c-1.3-0.3-2.3-0.9-2.3-2.1c0-1.3,1-2.1,2.5-2.1C-494.4,422.2-493.5,423.2-493.3,424.5z"/>
		<path class="st3" d="M-487,424.5h-0.9c-0.2-1-0.8-1.6-1.8-1.6c-0.9,0-1.5,0.5-1.5,1.3c0,0.9,0.7,1.2,1.8,1.5
			c1.7,0.4,2.5,1,2.5,2.3s-1.1,2-2.6,2s-2.6-0.7-2.8-2.4h0.9c0.2,1.3,1,1.7,2,1.7c0.9,0,1.7-0.4,1.7-1.3c0-0.8-0.5-1.2-2-1.6
			c-1.3-0.3-2.3-0.9-2.3-2.1c0-1.3,1-2.1,2.5-2.1C-488.1,422.2-487.2,423.2-487,424.5z"/>
		<path class="st3" d="M-478.9,426.1c0,2.2-1.2,3.9-3.6,3.9s-3.6-1.7-3.6-3.9c0-2.2,1.2-3.9,3.6-3.9S-478.9,423.9-478.9,426.1z
			 M-479.8,426.1c0-2-1.1-3.2-2.6-3.2s-2.6,1.2-2.6,3.2s1.1,3.2,2.6,3.2S-479.8,428.1-479.8,426.1z"/>
		<path class="st3" d="M-471.5,424.8h-0.9c-0.3-1.2-1-1.9-2.2-1.9c-1.2,0-2.5,1-2.5,3.2c0,2.3,1.1,3.3,2.4,3.3
			c1.1,0,1.9-0.6,2.2-1.8h0.9c-0.3,1.6-1.6,2.5-3.2,2.5c-1.8,0-3.3-1.3-3.3-3.9c0-2.5,1.6-3.9,3.4-3.9
			C-472.9,422.2-471.8,423.2-471.5,424.8z"/>
		<path class="st3" d="M-469.1,420.8c0,0.3-0.3,0.6-0.6,0.6s-0.6-0.3-0.6-0.6s0.3-0.6,0.6-0.6C-469.3,420.2-469.1,420.5-469.1,420.8
			z M-470.1,429.8v-7.4h0.9v7.4H-470.1z"/>
		<path class="st3" d="M-462.8,428.5l-0.4,0.8c-0.5,0.5-1.2,0.8-2.1,0.8c-1.4,0-2.4-0.7-2.4-2.1c0-1.7,1.6-2.5,4.3-2.5h0.5v-0.3
			c0-0.3,0-0.6,0-0.9c-0.1-0.9-0.6-1.3-1.7-1.3c-1,0-1.8,0.5-1.9,1.7h-0.9c0.1-1.5,1.2-2.4,2.8-2.4s2.4,0.7,2.5,2c0,0.3,0,0.6,0,1
			v2.6c0,0.7,0,1.2,0.1,2.1h-0.9L-462.8,428.5z M-462.9,426.9V426c-2.1-0.1-3.8,0.4-3.8,1.8c0,0.9,0.6,1.4,1.7,1.4
			C-463.7,429.3-462.9,428.3-462.9,426.9z"/>
		<path class="st3" d="M-458.8,427.8c0,0.3,0,0.5,0,0.7c0.1,0.7,0.4,0.9,1.4,0.8v0.5c-0.3,0.1-0.6,0.1-0.9,0.1
			c-0.8,0-1.3-0.4-1.3-1.2c0-0.3,0-0.5,0-1V423h-1v-0.7h1v-1.5h0.9v1.6h1.4v0.7h-1.4L-458.8,427.8L-458.8,427.8z"/>
		<path class="st3" d="M-454.9,420.8c0,0.3-0.3,0.6-0.6,0.6s-0.6-0.3-0.6-0.6s0.3-0.6,0.6-0.6C-455.2,420.2-454.9,420.5-454.9,420.8
			z M-455.9,429.8v-7.4h0.9v7.4H-455.9z"/>
		<path class="st3" d="M-446.4,426.1c0,2.2-1.2,3.9-3.6,3.9s-3.6-1.7-3.6-3.9c0-2.2,1.2-3.9,3.6-3.9
			C-447.7,422.2-446.4,423.9-446.4,426.1z M-447.4,426.1c0-2-1.1-3.2-2.6-3.2s-2.6,1.2-2.6,3.2s1.1,3.2,2.6,3.2
			S-447.4,428.1-447.4,426.1z"/>
		<path class="st3" d="M-439,425.7v4.1h-0.9v-4c0-0.4,0-0.7,0-1.1c-0.1-1-0.7-1.7-1.9-1.7s-2.3,0.9-2.3,3.2v3.6h-0.9v-7.4h0.9v1.4
			l0.4-0.8c0.6-0.6,1.3-0.8,2.1-0.8c1.6,0,2.5,0.9,2.6,2.2C-439,424.8-439,425.1-439,425.7z"/>
		<path class="st3" d="M-432.9,424.6h4.7v0.7h-4.7v4.5h-0.9v-9.7h6.1v0.7h-5.3v3.8H-432.9z"/>
		<path class="st3" d="M-419.8,426.1c0,2.2-1.2,3.9-3.6,3.9c-2.4,0-3.6-1.7-3.6-3.9c0-2.2,1.2-3.9,3.6-3.9
			C-421,422.2-419.8,423.9-419.8,426.1z M-420.7,426.1c0-2-1.1-3.2-2.6-3.2s-2.6,1.2-2.6,3.2s1.1,3.2,2.6,3.2
			C-421.9,429.3-420.7,428.1-420.7,426.1z"/>
		<path class="st3" d="M-415.2,422.3v0.7c-1.3-0.1-2.2,0.7-2.2,2.7v4.1h-0.9v-7.4h0.9v1.3l0.5-1c0.3-0.4,0.8-0.6,1.3-0.6
			C-415.5,422.2-415.4,422.2-415.2,422.3z"/>
		<path class="st3" d="M-402.3,429.8h-1.1l-2.3-8.7l-2.5,8.7h-1.1l-2.5-9.7h1l2.1,8.9l2.4-8.7h1.2l2.3,8.7l2.3-8.9h0.9L-402.3,429.8
			z"/>
		<path class="st3" d="M-392.2,426.1c0,2.2-1.2,3.9-3.6,3.9c-2.4,0-3.6-1.7-3.6-3.9c0-2.2,1.2-3.9,3.6-3.9
			C-393.4,422.2-392.2,423.9-392.2,426.1z M-393.2,426.1c0-2-1.1-3.2-2.6-3.2s-2.6,1.2-2.6,3.2s1.1,3.2,2.6,3.2
			S-393.2,428.1-393.2,426.1z"/>
		<path class="st3" d="M-387.7,422.3v0.7c-1.3-0.1-2.2,0.7-2.2,2.7v4.1h-0.9v-7.4h0.9v1.3l0.5-1c0.3-0.4,0.8-0.6,1.3-0.6
			C-387.9,422.2-387.8,422.2-387.7,422.3z"/>
		<path class="st3" d="M-385,426.5l-0.7,0.7v2.6h-0.9v-10.3h0.9v6.7l3.8-3.9h1.1l-3.6,3.5l3.7,3.9h-1.2L-385,426.5z"/>
		<path class="st3" d="M-378.5,420.8c0,0.3-0.3,0.6-0.6,0.6c-0.3,0-0.6-0.3-0.6-0.6s0.3-0.6,0.6-0.6
			C-378.8,420.2-378.5,420.5-378.5,420.8z M-379.5,429.8v-7.4h0.9v7.4H-379.5z"/>
		<path class="st3" d="M-370.6,425.7v4.1h-0.9v-4c0-0.4,0-0.7,0-1.1c-0.1-1-0.7-1.7-1.9-1.7c-1.2,0-2.3,0.9-2.3,3.2v3.6h-0.9v-7.4
			h0.9v1.4l0.4-0.8c0.6-0.6,1.3-0.8,2.1-0.8c1.6,0,2.5,0.9,2.6,2.2C-370.6,424.8-370.6,425.1-370.6,425.7z"/>
		<path class="st3" d="M-362.5,427.9c0,0.7,0,1.3,0,1.7c-0.1,2-1.3,3.1-3.3,3.1c-1.8,0-3-0.8-3.1-2.4v-0.2h0.9v0.2
			c0.1,1.1,1,1.7,2.3,1.7c1.6,0,2.4-0.9,2.5-2.4c0-0.4,0-0.7,0-1.1v-0.2l-0.5,0.8c-0.5,0.5-1.2,0.8-2.1,0.8c-2.1,0-3.3-1.6-3.3-3.8
			c0-2.7,1.7-4,3.5-4c0.7,0,1.4,0.2,1.9,0.7l0.5,0.8v-1.3h0.9v5.6L-362.5,427.9L-362.5,427.9z M-363.3,426.3v-0.6
			c0-2.1-1.3-2.8-2.4-2.8c-1.5,0-2.6,1.2-2.6,3.2c0,1.8,0.9,3.2,2.5,3.2C-364.5,429.3-363.3,428.5-363.3,426.3z"/>
		<path class="st3" d="M-349.8,429.8h-0.9v-4.4h-5.7v4.4h-0.9v-9.7h0.9v4.6h5.7v-4.6h0.9V429.8z"/>
		<path class="st3" d="M-341.1,426.1c0,2.2-1.2,3.9-3.6,3.9c-2.4,0-3.6-1.7-3.6-3.9c0-2.2,1.2-3.9,3.6-3.9
			C-342.3,422.2-341.1,423.9-341.1,426.1z M-342.1,426.1c0-2-1.1-3.2-2.6-3.2s-2.6,1.2-2.6,3.2s1.1,3.2,2.6,3.2
			S-342.1,428.1-342.1,426.1z"/>
		<path class="st3" d="M-338.9,427.8c0,0.3,0,0.6,0,0.8c0,0.5,0.2,0.6,0.9,0.5v0.7c-0.2,0-0.5,0-0.7,0c-0.6,0-1-0.2-1.1-1
			c0-0.3,0-0.5,0-1v-8.4h0.9V427.8L-338.9,427.8z"/>
		<path class="st3" d="M-335.6,420.8c0,0.3-0.3,0.6-0.6,0.6c-0.3,0-0.6-0.3-0.6-0.6s0.3-0.6,0.6-0.6
			C-335.9,420.2-335.6,420.5-335.6,420.8z M-336.6,429.8v-7.4h0.9v7.4H-336.6z"/>
		<path class="st3" d="M-327.5,429.8h-0.9v-1.4l-0.5,0.8c-0.5,0.5-1.2,0.8-2.1,0.8c-2.1,0-3.3-1.6-3.3-3.8c0-2.7,1.7-4,3.5-4
			c0.7,0,1.4,0.2,1.9,0.7l0.5,0.8v-4.2h0.9V429.8L-327.5,429.8z M-328.4,426.3v-0.6c0-2.1-1.3-2.8-2.4-2.8c-1.5,0-2.6,1.2-2.6,3.2
			c0,1.8,0.9,3.2,2.5,3.2C-329.5,429.3-328.4,428.5-328.4,426.3z"/>
		<path class="st3" d="M-321.1,428.5l-0.4,0.8c-0.5,0.5-1.2,0.8-2.1,0.8c-1.4,0-2.4-0.7-2.4-2.1c0-1.7,1.6-2.5,4.3-2.5h0.5v-0.3
			c0-0.3,0-0.6,0-0.9c-0.1-0.9-0.6-1.3-1.7-1.3c-1,0-1.8,0.5-1.9,1.7h-0.9c0.1-1.5,1.2-2.4,2.8-2.4c1.6,0,2.4,0.7,2.5,2
			c0,0.3,0,0.6,0,1v2.6c0,0.7,0,1.2,0.1,2.1h-0.7L-321.1,428.5z M-321.2,426.9V426c-2.1-0.1-3.8,0.4-3.8,1.8c0,0.9,0.6,1.4,1.7,1.4
			C-322,429.3-321.2,428.3-321.2,426.9z"/>
		<path class="st3" d="M-315.4,430.2c-0.8,2-1.5,2.5-2.5,2.5c-0.3,0-0.4,0-0.6,0V432c0.2,0,0.3,0,0.5,0c0.7,0,1.2-0.4,1.7-1.5
			l0.2-0.4l-2.9-7.7h1l2.4,6.8l2.4-6.8h1L-315.4,430.2z"/>
		<path class="st3" d="M-298.8,429.8h-0.9v-5.2c0-1.2,0-2.6,0-3.7c-0.4,1.1-0.9,2.5-1.3,3.7l-2,5.2h-1l-2-5.2
			c-0.4-1.2-0.9-2.5-1.3-3.6c0,1.1,0,2.5,0,3.7v5.1h-0.9v-9.7h1.4l3.3,8.9l3.3-8.9h1.4C-298.8,420.1-298.8,429.8-298.8,429.8z"/>
		<path class="st3" d="M-292.4,428.5l-0.4,0.8c-0.5,0.5-1.2,0.8-2.1,0.8c-1.4,0-2.4-0.7-2.4-2.1c0-1.7,1.6-2.5,4.3-2.5h0.5v-0.3
			c0-0.3,0-0.6,0-0.9c-0.1-0.9-0.6-1.3-1.7-1.3c-1,0-1.8,0.5-1.9,1.7h-0.9c0.1-1.5,1.2-2.4,2.8-2.4c1.6,0,2.4,0.7,2.5,2
			c0,0.3,0,0.6,0,1v2.6c0,0.7,0,1.2,0.1,2.1h-0.9L-292.4,428.5z M-292.4,426.9V426c-2.1-0.1-3.8,0.4-3.8,1.8c0,0.9,0.6,1.4,1.7,1.4
			C-293.3,429.3-292.4,428.3-292.4,426.9z"/>
		<path class="st3" d="M-286.4,422.3v0.7c-1.3-0.1-2.2,0.7-2.2,2.7v4.1h-0.9v-7.4h0.9v1.3l0.5-1c0.3-0.4,0.8-0.6,1.3-0.6
			C-286.7,422.2-286.5,422.2-286.4,422.3z"/>
		<path class="st3" d="M-283.7,426.5l-0.7,0.7v2.6h-0.9v-10.3h0.9v6.7l3.8-3.9h1.1l-3.6,3.5l3.7,3.9h-1.2L-283.7,426.5z"/>
		<path class="st3" d="M-272.5,426.4h-5.6c0.1,2.2,1.2,3,2.4,3c1,0,2-0.6,2.2-1.8h0.9c-0.3,1.7-1.7,2.5-3.2,2.5
			c-1.8,0-3.3-1.3-3.3-3.9c0-2.4,1.5-3.9,3.4-3.9c2.1,0,3.2,1.7,3.2,3.7C-272.5,426-272.5,426.1-272.5,426.4z M-278.1,425.7h4.8
			c-0.1-1.9-1.1-2.8-2.3-2.8C-276.9,422.9-278,423.8-278.1,425.7z"/>
		<path class="st3" d="M-267.8,422.3v0.7c-1.3-0.1-2.2,0.7-2.2,2.7v4.1h-0.9v-7.4h0.9v1.3l0.5-1c0.3-0.4,0.8-0.6,1.3-0.6
			C-268.1,422.2-267.9,422.2-267.8,422.3z"/>
		<path class="st3" d="M-261.9,424.5h-0.9c-0.2-1-0.8-1.6-1.8-1.6c-0.9,0-1.5,0.5-1.5,1.3c0,0.9,0.7,1.2,1.8,1.5
			c1.7,0.4,2.5,1,2.5,2.3s-1.1,2-2.6,2s-2.6-0.7-2.8-2.4h0.9c0.2,1.3,1,1.7,2,1.7c0.9,0,1.7-0.4,1.7-1.3c0-0.8-0.5-1.2-2-1.6
			c-1.3-0.3-2.3-0.9-2.3-2.1c0-1.3,1-2.1,2.5-2.1C-263,422.2-262.1,423.2-261.9,424.5z"/>
	</g>
</g>
<g>
	<g>
		<g>
			<path class="st4" d="M-212.2,146c0,0.2,0,0.4,0,0.6c-0.1,0.8-0.5,1.4-1.6,1.4c-0.9,0-1.5-0.6-1.5-1.6v-0.3h0.5v0.3
				c0,0.8,0.5,1.2,1.1,1.2c0.7,0,1-0.4,1.1-1.1c0-0.2,0-0.3,0-0.6v-3.2h0.5v3.3H-212.2z"/>
			<path class="st4" d="M-208.9,147.3l-0.2,0.4c-0.3,0.3-0.7,0.4-1.1,0.4c-0.7,0-1.3-0.4-1.3-1.1c0-0.9,0.9-1.4,2.3-1.4h0.3v-0.1
				c0-0.2,0-0.3,0-0.5c0-0.5-0.3-0.7-0.9-0.7c-0.6,0-0.9,0.3-1,0.9h-0.5c0.1-0.8,0.6-1.3,1.5-1.3s1.3,0.4,1.4,1.1c0,0.2,0,0.3,0,0.5
				v1.4c0,0.4,0,0.6,0.1,1.1h-0.5L-208.9,147.3z M-208.9,146.5V146c-1.1-0.1-2.1,0.2-2.1,1c0,0.5,0.3,0.8,0.9,0.8
				C-209.4,147.8-208.9,147.2-208.9,146.5z"/>
			<path class="st4" d="M-203.7,146c0,1.4-0.9,2.1-1.9,2.1c-0.4,0-0.8-0.1-1-0.4l-0.2-0.4v2.2h-0.5V144h0.5v0.8l0.3-0.4
				c0.3-0.3,0.7-0.4,1.1-0.4C-204.3,143.9-203.7,144.8-203.7,146z M-204.2,146c0-1-0.5-1.7-1.3-1.7c-0.7,0-1.3,0.4-1.3,1.6v0.3
				c0,1.1,0.7,1.5,1.3,1.5C-204.8,147.8-204.2,147.1-204.2,146z"/>
			<path class="st4" d="M-200.6,147.3l-0.2,0.4c-0.3,0.3-0.7,0.4-1.1,0.4c-0.7,0-1.3-0.4-1.3-1.1c0-0.9,0.9-1.4,2.3-1.4h0.3v-0.1
				c0-0.2,0-0.3,0-0.5c0-0.5-0.3-0.7-0.9-0.7c-0.6,0-0.9,0.3-1,0.9h-0.5c0.1-0.8,0.6-1.3,1.5-1.3s1.3,0.4,1.4,1.1c0,0.2,0,0.3,0,0.5
				v1.4c0,0.4,0,0.6,0.1,1.1h-0.5L-200.6,147.3z M-200.6,146.5V146c-1.1-0.1-2.1,0.2-2.1,1c0,0.5,0.3,0.8,0.9,0.8
				C-201,147.8-200.6,147.2-200.6,146.5z"/>
			<path class="st4" d="M-195.8,145.8v2.2h-0.5v-2.2c0-0.2,0-0.4,0-0.6c-0.1-0.5-0.4-0.9-1-0.9c-0.7,0-1.2,0.5-1.2,1.7v2h-0.5v-4
				h0.5v0.8l0.2-0.4c0.3-0.3,0.7-0.4,1.1-0.4c0.8,0,1.3,0.5,1.4,1.2C-195.8,145.3-195.8,145.5-195.8,145.8z"/>
			<path class="st4" d="M-192.3,146.1l-0.7,1.9h-0.5l1.9-5.2h0.6l1.9,5.2h-0.5l-0.7-1.9H-192.3z M-190.4,145.7l-0.9-2.5l-0.9,2.5
				H-190.4z"/>
			<path class="st4" d="M-185.9,145.1h-0.5c-0.1-0.6-0.4-0.8-1-0.8c-0.5,0-0.8,0.3-0.8,0.7c0,0.5,0.4,0.6,0.9,0.8
				c0.9,0.2,1.4,0.6,1.4,1.2c0,0.7-0.6,1.1-1.4,1.1c-0.8,0-1.4-0.4-1.5-1.3h0.5c0.1,0.7,0.5,0.9,1.1,0.9c0.5,0,0.9-0.2,0.9-0.7
				c0-0.4-0.3-0.7-1.1-0.9c-0.7-0.2-1.3-0.5-1.3-1.1c0-0.7,0.5-1.1,1.3-1.1C-186.4,143.9-186,144.4-185.9,145.1z"/>
			<path class="st4" d="M-182.5,145.1h-0.5c-0.1-0.6-0.4-0.8-1-0.8c-0.5,0-0.8,0.3-0.8,0.7c0,0.5,0.4,0.6,0.9,0.8
				c0.9,0.2,1.4,0.6,1.4,1.2c0,0.7-0.6,1.1-1.4,1.1c-0.8,0-1.4-0.4-1.5-1.3h0.5c0.1,0.7,0.5,0.9,1.1,0.9c0.5,0,0.9-0.2,0.9-0.7
				c0-0.4-0.3-0.7-1.1-0.9c-0.7-0.2-1.3-0.5-1.3-1.1c0-0.7,0.5-1.1,1.3-1.1C-183,143.9-182.6,144.4-182.5,145.1z"/>
			<path class="st4" d="M-178.1,146c0,1.2-0.7,2.1-1.9,2.1s-1.9-0.9-1.9-2.1s0.7-2.1,1.9-2.1S-178.1,144.9-178.1,146z M-178.6,146
				c0-1.1-0.6-1.7-1.4-1.7s-1.4,0.6-1.4,1.7s0.6,1.7,1.4,1.7S-178.6,147.1-178.6,146z"/>
			<path class="st4" d="M-174.1,145.3h-0.5c-0.1-0.7-0.5-1-1.2-1s-1.3,0.5-1.3,1.7s0.6,1.8,1.3,1.8c0.6,0,1-0.3,1.2-1h0.5
				c-0.2,0.9-0.8,1.3-1.7,1.3c-1,0-1.8-0.7-1.8-2.1c0-1.3,0.9-2.1,1.9-2.1C-174.9,143.9-174.3,144.5-174.1,145.3z"/>
			<path class="st4" d="M-172.8,143.2c0,0.2-0.1,0.3-0.3,0.3s-0.3-0.1-0.3-0.3c0-0.2,0.1-0.3,0.3-0.3S-172.8,143-172.8,143.2z
				 M-173.4,148v-4h0.5v4H-173.4z"/>
			<path class="st4" d="M-169.4,147.3l-0.2,0.4c-0.3,0.3-0.7,0.4-1.1,0.4c-0.7,0-1.3-0.4-1.3-1.1c0-0.9,0.9-1.4,2.3-1.4h0.3v-0.1
				c0-0.2,0-0.3,0-0.5c0-0.5-0.3-0.7-0.9-0.7c-0.6,0-0.9,0.3-1,0.9h-0.5c0.1-0.8,0.6-1.3,1.5-1.3s1.3,0.4,1.4,1.1c0,0.2,0,0.3,0,0.5
				v1.4c0,0.4,0,0.6,0.1,1.1h-0.5L-169.4,147.3z M-169.5,146.5V146c-1.1-0.1-2,0.2-2,1c0,0.5,0.3,0.8,0.9,0.8
				C-169.9,147.8-169.5,147.2-169.5,146.5z"/>
			<path class="st4" d="M-167.3,146.9c0,0.2,0,0.2,0,0.4c0,0.4,0.2,0.5,0.7,0.4v0.3c-0.2,0-0.3,0-0.5,0c-0.4,0-0.7-0.2-0.7-0.6
				c0-0.1,0-0.3,0-0.5v-2.5h-0.5V144h0.5v-0.8h0.5v0.9h0.8v0.4h-0.8V146.9z"/>
			<path class="st4" d="M-165.2,143.2c0,0.2-0.1,0.3-0.3,0.3s-0.3-0.1-0.3-0.3c0-0.2,0.1-0.3,0.3-0.3S-165.2,143-165.2,143.2z
				 M-165.7,148v-4h0.5v4H-165.7z"/>
			<path class="st4" d="M-160.6,146c0,1.2-0.7,2.1-1.9,2.1s-1.9-0.9-1.9-2.1s0.7-2.1,1.9-2.1S-160.6,144.9-160.6,146z M-161.1,146
				c0-1.1-0.6-1.7-1.4-1.7s-1.4,0.6-1.4,1.7s0.6,1.7,1.4,1.7S-161.1,147.1-161.1,146z"/>
			<path class="st4" d="M-156.6,145.8v2.2h-0.5v-2.2c0-0.2,0-0.4,0-0.6c-0.1-0.5-0.4-0.9-1-0.9c-0.7,0-1.2,0.5-1.2,1.7v2h-0.5v-4
				h0.5v0.8l0.2-0.4c0.3-0.3,0.7-0.4,1.1-0.4c0.8,0,1.3,0.5,1.4,1.2C-156.6,145.3-156.6,145.5-156.6,145.8z"/>
			<path class="st4" d="M-153.3,145.2h2.6v0.4h-2.6v2.4h-0.5v-5.2h3.3v0.4h-2.8V145.2z"/>
			<path class="st4" d="M-146.3,146c0,1.2-0.7,2.1-1.9,2.1c-1.3,0-1.9-0.9-1.9-2.1s0.7-2.1,1.9-2.1
				C-146.9,143.9-146.3,144.9-146.3,146z M-146.8,146c0-1.1-0.6-1.7-1.4-1.7c-0.8,0-1.4,0.6-1.4,1.7s0.6,1.7,1.4,1.7
				C-147.4,147.8-146.8,147.1-146.8,146z"/>
			<path class="st4" d="M-143.8,144v0.4c-0.7-0.1-1.2,0.4-1.2,1.4v2.2h-0.5v-4h0.5v0.7l0.3-0.5c0.2-0.2,0.4-0.3,0.7-0.3
				C-144,143.9-143.9,144-143.8,144z"/>
			<path class="st4" d="M-136.9,148h-0.6l-1.3-4.7l-1.3,4.7h-0.6l-1.3-5.2h0.5l1.2,4.8l1.3-4.7h0.6l1.3,4.7l1.2-4.8h0.5L-136.9,148z
				"/>
			<path class="st4" d="M-131.4,146c0,1.2-0.7,2.1-1.9,2.1c-1.2,0-1.9-0.9-1.9-2.1s0.7-2.1,1.9-2.1
				C-132.1,143.9-131.4,144.9-131.4,146z M-131.9,146c0-1.1-0.6-1.7-1.4-1.7s-1.4,0.6-1.4,1.7s0.6,1.7,1.4,1.7
				S-131.9,147.1-131.9,146z"/>
			<path class="st4" d="M-129,144v0.4c-0.7-0.1-1.2,0.4-1.2,1.4v2.2h-0.5v-4h0.5v0.7l0.3-0.5c0.2-0.2,0.4-0.3,0.7-0.3
				C-129.1,143.9-129,144-129,144z"/>
			<path class="st4" d="M-127.5,146.2l-0.4,0.4v1.4h-0.5v-5.5h0.5v3.6l2-2.1h0.6l-2,1.9l2,2.1h-0.6L-127.5,146.2z"/>
			<path class="st4" d="M-124,143.2c0,0.2-0.1,0.3-0.3,0.3c-0.2,0-0.3-0.1-0.3-0.3c0-0.2,0.1-0.3,0.3-0.3
				C-124.2,142.9-124,143-124,143.2z M-124.6,148v-4h0.5v4H-124.6z"/>
			<path class="st4" d="M-119.8,145.8v2.2h-0.5v-2.2c0-0.2,0-0.4,0-0.6c-0.1-0.5-0.4-0.9-1-0.9c-0.7,0-1.2,0.5-1.2,1.7v2h-0.5v-4
				h0.5v0.8l0.2-0.4c0.3-0.3,0.7-0.4,1.1-0.4c0.8,0,1.3,0.5,1.4,1.2C-119.8,145.3-119.8,145.5-119.8,145.8z"/>
			<path class="st4" d="M-115.4,147c0,0.4,0,0.7,0,0.9c0,1.1-0.7,1.7-1.8,1.7c-1,0-1.6-0.4-1.7-1.3v-0.1h0.5v0.1
				c0.1,0.6,0.5,0.9,1.2,0.9c0.8,0,1.3-0.5,1.3-1.3c0-0.2,0-0.4,0-0.6v-0.1l-0.3,0.4c-0.3,0.3-0.7,0.4-1.1,0.4c-1.1,0-1.8-0.9-1.8-2
				c0-1.4,0.9-2.1,1.9-2.1c0.4,0,0.8,0.1,1,0.4l0.2,0.4V144h0.5v3H-115.4z M-115.9,146.1v-0.3c0-1.1-0.7-1.5-1.3-1.5
				c-0.8,0-1.4,0.6-1.4,1.7c0,1,0.5,1.7,1.3,1.7C-116.5,147.8-115.9,147.3-115.9,146.1z"/>
			<path class="st4" d="M-108.6,148h-0.5v-2.4h-3v2.4h-0.5v-5.2h0.5v2.4h3v-2.4h0.5V148z"/>
			<path class="st4" d="M-103.9,146c0,1.2-0.7,2.1-1.9,2.1c-1.3,0-1.9-0.9-1.9-2.1s0.7-2.1,1.9-2.1
				C-104.6,143.9-103.9,144.9-103.9,146z M-104.4,146c0-1.1-0.6-1.7-1.4-1.7s-1.4,0.6-1.4,1.7s0.6,1.7,1.4,1.7
				C-105,147.8-104.4,147.1-104.4,146z"/>
			<path class="st4" d="M-102.7,147c0,0.2,0,0.3,0,0.4c0,0.3,0.1,0.3,0.5,0.3v0.3c-0.1,0-0.2,0-0.4,0c-0.3,0-0.5-0.1-0.6-0.5
				c0-0.1,0-0.3,0-0.5v-4.5h0.5V147z"/>
			<path class="st4" d="M-100.9,143.2c0,0.2-0.1,0.3-0.3,0.3c-0.2,0-0.3-0.1-0.3-0.3c0-0.2,0.1-0.3,0.3-0.3
				C-101.1,142.9-100.9,143-100.9,143.2z M-101.5,148v-4h0.5v4H-101.5z"/>
			<path class="st4" d="M-96.6,148h-0.5v-0.7l-0.3,0.4c-0.3,0.3-0.7,0.4-1.1,0.4c-1.1,0-1.8-0.9-1.8-2c0-1.4,0.9-2.1,1.9-2.1
				c0.4,0,0.8,0.1,1,0.4l0.2,0.4v-2.2h0.5v5.4H-96.6z M-97.1,146.1v-0.3c0-1.1-0.7-1.5-1.3-1.5c-0.8,0-1.4,0.6-1.4,1.7
				c0,1,0.5,1.7,1.3,1.7C-97.7,147.8-97.1,147.3-97.1,146.1z"/>
			<path class="st4" d="M-93.1,147.3l-0.2,0.4c-0.3,0.3-0.7,0.4-1.1,0.4c-0.7,0-1.3-0.4-1.3-1.1c0-0.9,0.9-1.4,2.3-1.4h0.3v-0.1
				c0-0.2,0-0.3,0-0.5c0-0.5-0.3-0.7-0.9-0.7s-0.9,0.3-1,0.9h-0.5c0.1-0.8,0.6-1.3,1.5-1.3s1.3,0.4,1.4,1.1c0,0.2,0,0.3,0,0.5v1.4
				c0,0.4,0,0.6,0.1,1.1H-93L-93.1,147.3z M-93.2,146.5V146c-1.1-0.1-2.1,0.2-2.1,1c0,0.5,0.3,0.8,0.9,0.8
				C-93.6,147.8-93.2,147.2-93.2,146.5z"/>
			<path class="st4" d="M-90.1,148.2c-0.4,1.1-0.8,1.4-1.4,1.4c-0.1,0-0.2,0-0.3,0v-0.4c0.1,0,0.2,0,0.3,0c0.4,0,0.6-0.2,0.9-0.8
				l0.1-0.2l-1.6-4.1h0.5l1.3,3.6l1.3-3.6h0.5L-90.1,148.2z"/>
			<path class="st4" d="M-81.1,148h-0.5v-2.8c0-0.7,0-1.4,0-2c-0.2,0.6-0.5,1.3-0.7,2l-1.1,2.8H-84l-1.1-2.8c-0.2-0.6-0.5-1.4-0.7-2
				c0,0.6,0,1.3,0,2v2.8h-0.5v-5.2h0.8l1.8,4.8l1.7-4.8h0.7v5.2H-81.1z"/>
			<path class="st4" d="M-77.7,147.3l-0.2,0.4c-0.3,0.3-0.7,0.4-1.1,0.4c-0.7,0-1.3-0.4-1.3-1.1c0-0.9,0.9-1.4,2.3-1.4h0.3v-0.1
				c0-0.2,0-0.3,0-0.5c0-0.5-0.3-0.7-0.9-0.7s-0.9,0.3-1,0.9h-0.5c0.1-0.8,0.6-1.3,1.5-1.3s1.3,0.4,1.4,1.1c0,0.2,0,0.3,0,0.5v1.4
				c0,0.4,0,0.6,0.1,1.1h-0.5L-77.7,147.3z M-77.7,146.5V146c-1.1-0.1-2.1,0.2-2.1,1c0,0.5,0.3,0.8,0.9,0.8
				C-78.1,147.8-77.7,147.2-77.7,146.5z"/>
			<path class="st4" d="M-74.4,144v0.4c-0.7-0.1-1.2,0.4-1.2,1.4v2.2h-0.5v-4h0.5v0.7l0.3-0.5c0.2-0.2,0.4-0.3,0.7-0.3
				C-74.6,143.9-74.5,144-74.4,144z"/>
			<path class="st4" d="M-73,146.2l-0.4,0.4v1.4h-0.4v-5.5h0.5v3.6l2-2.1h0.6l-2,1.9l2,2.1h-0.6L-73,146.2z"/>
			<path class="st4" d="M-67,146.2h-3c0.1,1.2,0.6,1.6,1.3,1.6c0.6,0,1.1-0.3,1.2-1h0.5c-0.2,0.9-0.9,1.4-1.7,1.4
				c-1,0-1.8-0.7-1.8-2.1c0-1.3,0.8-2.1,1.8-2.1c1.1,0,1.7,0.9,1.7,2C-67,146-67,146-67,146.2z M-70,145.8h2.6
				c-0.1-1-0.6-1.5-1.2-1.5C-69.3,144.3-69.9,144.8-70,145.8z"/>
			<path class="st4" d="M-64.4,144v0.4c-0.7-0.1-1.2,0.4-1.2,1.4v2.2h-0.5v-4h0.5v0.7l0.3-0.5c0.2-0.2,0.4-0.3,0.7-0.3
				C-64.6,143.9-64.5,144-64.4,144z"/>
			<path class="st4" d="M-61.3,145.1h-0.5c-0.1-0.6-0.4-0.8-1-0.8c-0.5,0-0.8,0.3-0.8,0.7c0,0.5,0.4,0.6,0.9,0.8
				c0.9,0.2,1.4,0.6,1.4,1.2c0,0.7-0.6,1.1-1.4,1.1c-0.8,0-1.4-0.4-1.5-1.3h0.5c0.1,0.7,0.5,0.9,1.1,0.9c0.5,0,0.9-0.2,0.9-0.7
				c0-0.4-0.3-0.7-1.1-0.9c-0.7-0.2-1.3-0.5-1.3-1.1c0-0.7,0.5-1.1,1.3-1.1C-61.8,143.9-61.4,144.4-61.3,145.1z"/>
		</g>
		<g>
			<path class="st4" d="M-201.5,130.4c0,0.8,0,1.3-0.1,2.5c-0.2,3.1-2.2,5.3-6.5,5.3c-4.2,0-6.2-2.3-6.3-6.1v-0.9h3.6l0.1,0.9
				c0.1,2.4,1.2,3.3,2.9,3.3s2.5-1.1,2.7-2.8c0-0.6,0-1.2,0-1.9v-11.1h3.6V130.4z"/>
			<path class="st4" d="M-180,128.8c0,5.7-3.4,9.4-9,9.4s-9-3.8-9-9.4c0-5.7,3.4-9.4,9-9.4C-183.4,119.3-180,123.1-180,128.8z
				 M-183.8,128.8c0-4.3-1.9-6.7-5.2-6.7c-3.2,0-5.2,2.5-5.2,6.7s1.9,6.7,5.2,6.7C-185.8,135.5-183.8,133-183.8,128.8z"/>
			<path class="st4" d="M-162,132.4c0,3.4-2.6,5-5,5.3c-0.9,0.1-1.5,0.1-2.5,0.1h-6.6v-18.2h6.5c0.9,0,1.4,0,2.3,0.1
				c2.9,0.4,4.6,2.1,4.6,4.5c0,1.9-1,3.1-2.8,3.7C-163.1,128.7-162,130.1-162,132.4z M-172.5,127.1h2.7c0.4,0,0.9,0,1.3-0.1
				c1.3-0.2,2-0.9,2-2.3s-0.8-2-2.1-2.2c-0.4-0.1-0.9-0.1-1.3-0.1h-2.6L-172.5,127.1L-172.5,127.1z M-165.8,132.5
				c0-1.7-1-2.4-2.3-2.5c-0.4-0.1-0.9-0.1-1.3-0.1h-3v5.1h3.2c0.4,0,0.9,0,1.2,0C-166.8,134.9-165.8,134-165.8,132.5z"/>
			<path class="st4" d="M-138.1,132.4c0,3.4-2.6,5-5,5.3c-0.9,0.1-1.5,0.1-2.5,0.1h-6.6v-18.2h6.5c0.9,0,1.4,0,2.3,0.1
				c2.9,0.4,4.6,2.1,4.6,4.5c0,1.9-1,3.1-2.8,3.7C-139.3,128.7-138.1,130.1-138.1,132.4z M-148.6,127.1h2.7c0.4,0,0.9,0,1.3-0.1
				c1.3-0.2,2-0.9,2-2.3s-0.8-2-2.1-2.2c-0.4-0.1-0.9-0.1-1.3-0.1h-2.6L-148.6,127.1L-148.6,127.1z M-141.9,132.5
				c0-1.7-1-2.4-2.3-2.5c-0.4-0.1-0.9-0.1-1.3-0.1h-3v5.1h3.2c0.4,0,0.9,0,1.2,0C-143,134.9-141.9,134-141.9,132.5z"/>
			<path class="st4" d="M-117.3,128.8c0,5.7-3.4,9.4-9,9.4s-9-3.8-9-9.4c0-5.7,3.4-9.4,9-9.4C-120.6,119.3-117.3,123.1-117.3,128.8z
				 M-121.1,128.8c0-4.3-1.9-6.7-5.2-6.7c-3.2,0-5.2,2.5-5.2,6.7s1.9,6.7,5.2,6.7C-123,135.5-121.1,133-121.1,128.8z"/>
			<path class="st4" d="M-110.2,132.4l-1.8,5.5h-3.9l6.6-18.2h4.6l6.4,18.2h-3.9l-1.8-5.5H-110.2z M-109.3,129.5h4.3l-2.1-6.7
				L-109.3,129.5z"/>
			<path class="st4" d="M-80.9,137.9h-4c-0.4-1.2-0.7-2.3-0.9-4.1c-0.2-1.9-1-3.1-2.4-3.2c-0.5,0-0.9,0-1.4,0h-2.2v7.3h-3.6v-18.2
				h6.6c1.1,0,1.7,0,2.6,0.1c2.6,0.3,4.8,1.7,4.8,4.8c0,2.3-1.4,3.8-3.6,4.4c1.8,0.7,2.5,2.2,2.7,4.2
				C-82,135.5-81.6,136.8-80.9,137.9z M-89.3,127.8c0.6,0,1.1,0,1.5,0c1.4-0.1,2.6-0.8,2.6-2.6c0-1.8-1-2.4-2.4-2.6
				c-0.4-0.1-0.9-0.1-1.5-0.1h-2.7v5.3L-89.3,127.8L-89.3,127.8z"/>
			<path class="st4" d="M-61.4,128.5c0,5.6-3.3,8.7-7.5,9.2c-0.9,0.1-1.3,0.1-2.3,0.1h-6.2v-18.2h6.3c1,0,1.4,0,2.3,0.1
				C-64.7,120.3-61.4,123-61.4,128.5z M-65.2,128.6c0-3.6-1.7-5.6-4.4-5.9c-0.6-0.1-1.1-0.1-1.9-0.1h-2.3V135h2.2
				c0.8,0,1.3,0,1.9-0.1C-67,134.6-65.2,132.3-65.2,128.6z"/>
		</g>
	</g>
	<g>
		<path class="st4" d="M-250.3,102.8c-15,0-27.2,12.2-27.2,27.2s12.2,27.2,27.2,27.2c15,0,27.2-12.2,27.2-27.2
			C-223.1,115-235.3,102.8-250.3,102.8z M-250.3,155.2c-13.9,0-25.2-11.3-25.2-25.2c0-13.9,11.3-25.2,25.2-25.2
			c13.9,0,25.2,11.3,25.2,25.2C-225.1,143.9-236.4,155.2-250.3,155.2z"/>
		<g>
			<path class="st4" d="M-242.2,130L-242.2,130c5.6,0,10.1-4.5,10.1-10.1s-4.5-10.1-10.1-10.1l0,0l0,0h-6h-4v3.1v27.2l0,0
				c0,3.3-2.7,6.1-6.1,6.1c-3.3,0-6.1-2.7-6.1-6.1h-4l0,0c0,5.6,4.5,10.1,10.1,10.1c3.3,0,6.2-1.6,8.1-4c1.8,2.5,4.8,4,8.1,4
				c5.6,0,10.1-4.5,10.1-10.1S-236.6,130-242.2,130z"/>
		</g>
		<path class="st4" d="M-281.4,165.5L-281.4,165.5c-0.9-0.9-0.9-2.3,0-3.2l11.4-11.4c0.9-0.9,2.3-0.9,3.2,0l0,0
			c0.9,0.9,0.9,2.3,0,3.2l-11.4,11.4C-279.1,166.4-280.5,166.4-281.4,165.5z"/>
	</g>
</g>
</svg>
